<svg xmlns="http://www.w3.org/2000/svg" width="68.157" height="46" viewBox="0 0 68.157 46"><path d="M68.559,63.519a15.118,15.118,0,0,0,4.377.568h4.832A16.433,16.433,0,0,0,93.457,47.716V21.17a3.041,3.041,0,1,0-6.082,0V47.716a10.294,10.294,0,0,1-9.55,10.232H76.8a17.8,17.8,0,0,1-8.242,5.571Zm-5.8-42.349c0-1.478,0-2.9-.625-2.956-.171,0-2.217-.114-2.444-.114a3.057,3.057,0,0,0-3.07,3.07V47.716a15.529,15.529,0,0,0,2.785,9.1,16.538,16.538,0,0,0,6.48-1.648A10.119,10.119,0,0,1,62.7,47.716V21.17ZM31.5,35.835V49.023a10.435,10.435,0,0,0,8.981,9.038h.341C47.526,58.062,52.7,58,59.236,58a16.469,16.469,0,0,0,11.881-5.059,16.138,16.138,0,0,0,5-11.994,16.193,16.193,0,0,0-5-11.88,16.893,16.893,0,0,0-7.162-4.377,46.544,46.544,0,0,0-.171-6.31,21.9,21.9,0,0,1,11.653,6.31,22.007,22.007,0,0,1,6.708,16.258,22.224,22.224,0,0,1-6.708,16.314,21.826,21.826,0,0,1-16.2,6.821H42.069a15.28,15.28,0,0,1-11.6-4.491A15.555,15.555,0,0,1,25.3,47.716v-4.6h.114V21.17a3.093,3.093,0,0,1,3.07-3.07h3.07V35.835ZM35.3,24.182c3.126,0,7.788,2.729,7.788,5.8a5.9,5.9,0,0,1-5.741,5.855H32.8v6.082h6.764a8.018,8.018,0,0,1,8.072,8.015,10.23,10.23,0,0,1-3.07,6.708h7.106a9.831,9.831,0,0,0,1.99-6.708A14.205,14.205,0,0,0,46.56,37.6a11.491,11.491,0,0,0,2.729-7.617c0-6.594-7.447-11.88-13.927-11.88H32.8v6.082Z" transform="translate(-25.3 -18.1)" fill="#a8946e" fill-rule="evenodd"/></svg>