<?xml version="1.0" encoding="UTF-8"?>
<!DOCTYPE svg PUBLIC "-//W3C//DTD SVG 1.1//EN" "http://www.w3.org/Graphics/SVG/1.1/DTD/svg11.dtd">
<!-- Creator: CorelDRAW 2018 (64-Bit) -->
<svg xmlns="http://www.w3.org/2000/svg" xml:space="preserve" width="8.3985mm" height="1.9153mm" version="1.1" style="shape-rendering:geometricPrecision; text-rendering:geometricPrecision; image-rendering:optimizeQuality; fill-rule:evenodd; clip-rule:evenodd"
     viewBox="0 0 35.29 8.05"
     xmlns:xlink="http://www.w3.org/1999/xlink">
 <defs>
  <style type="text/css">
   <![CDATA[
    .fil0 {fill:#45647a;fill-rule:nonzero}
   ]]>
  </style>
 </defs>
    <g id="Слой_x0020_1">
  <metadata id="CorelCorpID_0Corel-Layer"/>
        <path class="fil0" d="M5.3 4.39c0.13,0 0.22,-0.02 0.26,-0.07 0.04,-0.04 0.07,-0.12 0.07,-0.24 0,-0.42 -0.17,-0.83 -0.51,-1.2 -0.34,-0.37 -0.84,-0.56 -1.52,-0.56 -0.47,0 -0.95,0.22 -1.45,0.66 -0.5,0.44 -0.75,1.07 -0.75,1.89 0,0.59 0.26,1.13 0.79,1.61 0.53,0.47 1.12,0.71 1.77,0.71 0.49,0 1.03,-0.16 1.6,-0.46 0.22,-0.12 0.36,-0.18 0.43,-0.18 0.1,0 0.18,0.03 0.24,0.09 0.06,0.06 0.09,0.13 0.09,0.21 0,0.21 -0.31,0.46 -0.94,0.75 -0.62,0.29 -1.26,0.44 -1.93,0.44 -0.98,0 -1.8,-0.33 -2.46,-1 -0.67,-0.66 -1,-1.46 -1,-2.38 0,-0.84 0.37,-1.56 1.1,-2.16 0.73,-0.6 1.55,-0.9 2.46,-0.9 1.18,0 2.06,0.3 2.65,0.9 0.59,0.6 0.88,1.33 0.88,2.16 0,0.18 -0.05,0.29 -0.14,0.33 -0.09,0.04 -0.25,0.06 -0.5,0.06l-3.87 0c-0.31,0 -0.47,-0.12 -0.47,-0.36 0,-0.23 0.16,-0.34 0.49,-0.34l2.7 0zm5.87 -0.25l-3.24 0 0 1.25 3.24 0 0 -1.25zm1.48 -4.14l0 7.68 3.32 0c1.84,0 2.89,-0.72 2.89,-2.2 0,-0.83 -0.58,-1.49 -1.28,-1.72 0.64,-0.24 1.11,-0.86 1.11,-1.63 0,-1.47 -1.13,-2.13 -2.91,-2.13l-3.13 0zm3.24 4.49c0.85,0 1.38,0.2 1.38,0.92 0,0.73 -0.53,0.93 -1.38,0.93l-1.72 -0.01 0 -1.84 1.71 0zm-0.15 -3.14c0.75,0 1.36,0.16 1.36,0.89 0,0.75 -0.59,0.91 -1.35,0.91l-1.57 0 0 -1.8 1.56 0zm4.49 -1.35l0 7.68 3.17 0c2.4,0 3.99,-1.53 3.99,-3.84 0,-2.31 -1.58,-3.84 -3.99,-3.84l-3.17 0zm3.15 1.43c1.62,0 2.4,1 2.4,2.41 0,1.39 -0.78,2.41 -2.4,2.41l-1.62 0 0 -4.82 1.62 0zm11.9 -1.43l-1.53 0 0 4.53c0,1.26 -0.71,1.81 -1.77,1.81 -1.06,0 -1.77,-0.55 -1.77,-1.81l0 -4.53 -1.53 0 0 4.61c0,2.12 1.35,3.2 3.3,3.2 1.95,0 3.3,-1.08 3.3,-3.2l0 -4.61z"/>
 </g>
</svg>