<svg xmlns="http://www.w3.org/2000/svg" xmlns:xlink="http://www.w3.org/1999/xlink" width="300" height="286.26" viewBox="0 0 300 286.26">
  <defs>
    <clipPath id="clip-path">
      <rect id="Rectangle_7794" data-name="Rectangle 7794" width="300" height="286.26" transform="translate(1020 414)" fill="#fff" stroke="#707070" stroke-width="1"/>
    </clipPath>
  </defs>
  <g id="Mask_Group_308" data-name="Mask Group 308" transform="translate(-1020 -414)" clip-path="url(#clip-path)">
    <path id="Path_64" data-name="Path 64" d="M2228.915,604.593h10.425V591.281l-3.807-4.138h-.247V578.1a1.046,1.046,0,0,0-1-1.084h0a1.053,1.053,0,0,0-1,1.084v9.046h-.286l-4.1,4.454v13Zm-1224.659,65.24c5.454-2.473,10.888,1.8,13.324,3.872,2.919,2.483,6.194,1.656,9.606,1.2a7.434,7.434,0,0,1,3.521.4v18.82c-.769-1.951-6.854-.394-8.156.325-4.763,2.641-9.182-4.956-13.788-4.956-1.9,0-3.363.167-4.507,1.438v59.692l21.47,31.275-19.3,18.4h15.385l-5.819-6.326,9.586-8.907,4.172,15.234h1.322l-3.758-18.623,5.927-35.384,24.469,36.9-17.7,17.106h8.393l-2.436-3.163,9.162-8.907-1.992,12.071h1.361l-.227-.355,2.584-13.588,2.15-3.754-2.367-3.981-2.051-25.895,19.508,33.975-14.547,13.361-.04.237h17.447V779.4h33.621v20.9h19.261q-.725-2.542-1.391-5.153h53.908c.73,1.714,1.47,3.439,2.229,5.153h2.367a305.867,305.867,0,0,1-11.381-29.59c-12.939-40-8.432-63.575-14.024-101.353-2.663-17.973-8.708-34.98-24.123-48.548,15.365,8.908,25.622,20.6,31.6,53.209,6.726,36.685,2.9,59.219,18.452,96.4,4.941,11.814,10.641,22.3,16.1,29.886h7.456c2.219-17.855,4.507-35.552,7.17-52.214,3.659-22.88,10.859-46.144,16.815-62.8,8.284-23.136,16.815-35.68,33.463-36.143-11.016,16.318-9.961,31.363-8.669,49.337,1.972,27.55,1.391,58.421.394,85.981q-.281,7.7-.75,15.825h2.4c.1-1.734.187-3.449.276-5.153h6.716l.3-.936h-6.973c.059-1.182.109-2.355.168-3.508h7.91l.3-.936h-8.156q.074-1.774.148-3.518h9.123l.3-.936h-9.389l.01-.365c.04-1.044.069-2.1.108-3.153h10.385l.306-.936H1262.71c.039-1.172.079-2.335.118-3.518h11.184q-.119,1.611-.266,3.163c7.535-21.343,11.006-37.936,12.782-51.583,3.876-29.856-.986-52.785,19.025-77.606,7.16-8.868,15.494-14.041,25.1-18.436-37.773,32.576-33.266,51.957-33.986,84.129-.818,36.389-7.259,59.19-14.409,83.3h2.14c.513-1.715,1.016-3.439,1.519-5.153h54.894c-.316,1.813-.651,3.537-1,5.153h12.18l3.176-105.511c.72-.168.868-2.532.306-2.749-.947-.374-.759-2.4.345-2.316.108-.562.059-1.084.247-2.148a2.484,2.484,0,0,1,.237-4.493v-2.838c8.728-9.794,28.818-7.459,35.613-5.5,1.539.443,4.458-1.685,4.478-1.7.434-.276.138-2.976.464-7.183,1.568-1.547,10.3-3.094,14.5-.375a1.455,1.455,0,0,1,.759,1.183l2.042,54.9,1.844.7.395,26.2,6.026,5.419,3.373.089c-.276-.02-.907-1.311-.079-1.311,2.762-3.094,18.512-3.587,24.981,1.251.345.256,1.519.926,1.292,1.5l-.01.089,1.746,44.8h43.966V683.441h286.66V800.313h38.128c-13.137-13.47-12.377-41.139-4.507-53.771,4.073-6.533,9.221-14.13,20.346-17.234a42.075,42.075,0,0,1,19.636-.581c22.93,4.207,35.179,9.686,60.4,7.548,32.417-2.749,46.609-10.12,70.831-31.019,17.111-14.77,45.712-44.853,68.139-43.513,21.934,1.32,26.234,34.8,28.167,53.386.858,8.208,2.328,26.555,1.559,42.311h61.58c38.828-.847,63.484,7.962,78.041,23.648V743.635a2.378,2.378,0,0,1-1.923-2.4V738.8h8.156v2.434a2.386,2.386,0,0,1-1.923,2.4v42.685c.6.828,1.183,1.665,1.736,2.523V744.611l1.41-1.537v-4.138h2.525v4.089l1.45,1.577V799.15q.251.591.473,1.182h1.016v-56.7a2.379,2.379,0,0,1-1.923-2.4V738.8h8.156v2.434a2.386,2.386,0,0,1-1.923,2.4v56.7h1V744.739a2.359,2.359,0,0,0,2.259-2.178v-3.853h5.415v3.853a2.366,2.366,0,0,0,2.258,2.178v55.593h1v-56.7a2.378,2.378,0,0,1-1.923-2.4V738.8h8.156v2.434a2.386,2.386,0,0,1-1.923,2.4v56.7h1.154V744.739a2.351,2.351,0,0,0,2.259-2.178v-3.853h18.906v3.853a2.359,2.359,0,0,0,2.259,2.178v55.593h1.164v-56.7a2.378,2.378,0,0,1-1.923-2.4V738.8h8.156v2.434a2.386,2.386,0,0,1-1.923,2.4v56.7h1.164V744.739a2.359,2.359,0,0,0,2.259-2.178v-3.853h5.414v3.853a2.367,2.367,0,0,0,2.259,2.178v55.593h1.075v-56.7a2.379,2.379,0,0,1-1.923-2.4V738.8h8.156v2.434a2.386,2.386,0,0,1-1.923,2.4v56.7h1.736V744.611l1.4-1.537v-4.138h2.525v4.089l1.45,1.577v55.721h1.489v-56.7a2.378,2.378,0,0,1-1.923-2.4v-2.434h8.156v2.434a2.4,2.4,0,0,1-1.923,2.4v56.7h978.14v38.4H.072v-38.4H856.46l-13.078-13.529,19.823-36.556-4.093,32.1,5.158,17.983H866.7l-3.333-11.253,8.521,8.2-2.4,3.045h7.052l-15.651-17.687L884.6,744.9l7.979,36.556-5.73,18.86h1.687l5.335-14.761,7.87,7.735-6.894,7.026h4.2l2.475-3.4,3.126,3.4H910.8l-16.5-19.1L919.52,742.2l16.914,37.611-12.081,20.505h1.7L937.41,783.68l15.4,16.633h2.387l-17.032-20.85,20.691-38.31,21.875,38.773-16.48,20.387h2.949l14.172-17.756,11.746,17.756h2.564l-13.551-20.15L998.508,742.2l4.31,6.287V667h1.489v2.848Zm-.759-5.873a1.226,1.226,0,1,1-1.124,1.222A1.179,1.179,0,0,1,1003.5,663.96ZM1382.438,732.2h3.136v7.952h-3.136Zm-19.2-9.922h2.249v5.705h-2.249Zm-.966,13.273h2.249v5.705h-2.249Zm-.483,11.795h2.249v5.705h-2.249Zm18.8-34.064h2.249v5.7h-2.249ZM1378.5,700h2.249v5.7H1378.5Zm-3.62-8.73h2.249v5.705h-2.249Zm-.237-11.962h2.249v5.705h-2.249Zm23.768-4.414,2.909,125.415-.4.01h-2.544l-1.2-110.99Zm26.964,82.434a43.389,43.389,0,0,1,14.448-1.232,32.341,32.341,0,0,1,12.476,3.341l-.355.8a31.679,31.679,0,0,0-12.18-3.252,42.409,42.409,0,0,0-14.172,1.2l-.217-.857Zm.187,7.42a43.131,43.131,0,0,1,14.448-1.231,32.337,32.337,0,0,1,12.476,3.34l-.355.8a31.673,31.673,0,0,0-12.18-3.252,42.423,42.423,0,0,0-14.172,1.2l-.217-.847Zm.434,9.026a43.061,43.061,0,0,1,14.438-1.232,32.349,32.349,0,0,1,12.476,3.34l-.355.8a31.456,31.456,0,0,0-12.18-3.251,42.408,42.408,0,0,0-14.172,1.2l-.217-.848Zm.109,6.8a43.067,43.067,0,0,1,14.438-1.232,32.348,32.348,0,0,1,12.476,3.34l-.355.8a31.68,31.68,0,0,0-12.18-3.252,42.45,42.45,0,0,0-14.172,1.2l-.217-.857Zm.325,7.972a43.1,43.1,0,0,1,14.439-1.232,32.437,32.437,0,0,1,12.486,3.34l-.355.8a31.5,31.5,0,0,0-12.18-3.252,42.316,42.316,0,0,0-14.162,1.2l-.217-.847Zm.108,6.671a43.134,43.134,0,0,1,14.448-1.232,32.342,32.342,0,0,1,12.476,3.34l-.355.8a31.68,31.68,0,0,0-12.18-3.252,42.317,42.317,0,0,0-14.162,1.2l-.217-.857Zm-32.852-113.354c-2.811-.483-5.434-.887-8.018-1.163a63.745,63.745,0,0,0-7.8-.345l-.01-.355a62.423,62.423,0,0,1,7.841.345c2.594.266,5.217.67,8.038,1.162l-.049.345Zm-36.294,3.685a26.93,26.93,0,0,1,8.65-4.355,27.577,27.577,0,0,1,7.377-1.084v.355a27.351,27.351,0,0,0-7.3,1.074,26.689,26.689,0,0,0-8.541,4.306Zm-481.53,71.369-10.937-5.686-2.209,23.895,13.146-18.219Zm30.771,1.113-13.147,18.86L886.815,746.2Zm38.069,42.291-7.673-7.617-7.259,7.617h3.876l3.264-4.68.966,1.4-1.8,3.281h2.2l.68-2.227,2.436,2.227h3.3Zm43.355,0-7.7-7.962-8.324,7.962h5.493l3.265-4.68.967,1.4-1.8,3.281h2.2l.68-2.227,2.426,2.227ZM937.034,777.59l-13.472-31.63,14.123,13.125,16.381-13.125Zm44.351-.532-17.94-31.226,17.141,13.243,15.089-15-14.281,32.98Zm49.282-30.753-5.069,31.63-14.014-19.8,19.074-11.834Zm24.143,29.876-12.071-18.751,9.912-7.144Zm34.469-188.842h1.479v-1.38h1.608V572.4h-1.608v-1.9h.986v-.916h.621V558.528h-1.608v-1.9h.986v-.916h.621V543.255h-2.259V540.92h1.2v-1.113h1.055V524.474h-1.884v-2.089h1.075V521.38h.809v-5.37h2.673v5.37h.75v1.005h1.075v2.089h-1.834v15.332h1.006v1.113h1.2v2.335h-2.209V555.71h.562v.916h.986v1.9h-1.548v11.056h.562v.916h.986v1.9h-1.548V585.96h1.548v1.38h1.479v2.877h-2.318v22.919h6.707v3.015h-4.931v4.365h.888a2.06,2.06,0,0,1,4,0h0v.01a2.647,2.647,0,0,1,.1.69,2.291,2.291,0,0,1-.1.69V625.2h-2.318v2.168h1.371v.729h.789v1h.73v1.173h.838v.906h.966v1.084H1106v6.089h-1.667v5.567h-1.4v3.922h-2.564v3.518h-2.722l.957,82.365h2.219l1.992,42.409H1084.7l1.884-42.409h2.318l.907-82.365h-2.663V647.83h-2.564v-3.922h-1.4v-5.567h-1.667v-6.089h1.213v-1.084h.976v-.906h.838v-1.173h.73v-1h.779v-.729h1.371V625.2c-2.061-.7,3.679-6.552,1.479-2.168l1.548-2.523v-4.365h-5.6v-3.015h6.785V590.207h-2.367V587.33Zm-2.771,42.311h2.1v3.222h-2.1Zm3.047,0h2.1v3.222h-2.1Zm3.452,0h2.1v3.222h-2.1Zm2.939,0h2.1v3.222h-2.1Zm2.988,0h2.1v3.222h-2.1ZM2128.99,578.678c.7,11.923,3.176,12.09,4.112,1.4a59.714,59.714,0,0,0-.621-15.194c15.8,23.077,17.584,51.09,11.805,81.774a59,59,0,0,0-.878,25.678c5.375,27.314,7.338,54.411,7.831,81.419h-47.073c.542-16.544,1.371-33.285,2.949-50.519a164.866,164.866,0,0,0-.927-52.292c-4.359-22.831-.848-46.912,22.792-72.265ZM1885.961,730.51l2.239-32.625c2.426-18.633,4.5-27.156,11.223-31.482,3.235-2.079,7.742-1.3,12.3,3.488,7.052,7.4,22.674,39.177,32.2,58.155a145.128,145.128,0,0,1-25.563,4.109,112.957,112.957,0,0,1-32.408-1.646Zm33.453,68.915-44.706.8V778.556h16.786q1.539,1.641,3.146,3.242a86.125,86.125,0,0,0,24.774,17.618Zm157.975-13.815H2093.6V772.467H2085.4c-1.164,5.587-3.264,10.011-8.008,13.145Zm17.94,0h14.961V772.979a55.974,55.974,0,0,0-8.275-.512h-6.687Zm16.687,0h15.73v-7.4a57.85,57.85,0,0,0-15.73-4.976Zm17.457,0h8.926a37.744,37.744,0,0,0-8.926-6.513Zm10.691,1.961h-10.691v12.741h54.085c-.187-19.559-28.759-33.541-53.227-33.127h-44.085c-.109.916-.237,1.823-.365,2.69h29.774c34.607-.749,51.284,10.691,57.369,29.364h-28.433a18.115,18.115,0,0,0-4.438-11.667Zm-12.407,12.741V787.572h-15.73v12.741Zm-17.456,0V787.572h-14.961v12.741Zm-16.687,0V787.572h-19.942l-.168.069-17.19.069v12.6h37.309Zm-39.035,0V787.72l-25.041.1v12.494Zm-26.757,0V787.828l-28.029.109v12.376Zm-29.745,0V787.937l-19.153.079-10.03,12.3h29.183Zm219.092,0c-3.3-23.106-37.773-39.286-67.488-38.773h-62.873c-.059.818-.138,1.626-.217,2.414h48.089c43.049-.936,63.918,13.223,71.621,36.359h10.868ZM2056.3,668.128v37.7H2077.5c-.237-1.409-.483-2.71-.7-3.862-1.884-9.657-7.525-34.349-18.857-34.014A10.525,10.525,0,0,0,2056.3,668.128Zm0,43.03v17.667H2080.4c-.532-6.336-1.282-12.455-2.051-17.667H2056.3Zm0,22.988v15.608h24.873c.118-4.976-.05-10.307-.385-15.608Zm0,20.939v24.752h12.979a23.719,23.719,0,0,0,8.8-10.573c1.548-3.518,2.436-8.474,2.85-14.169H2056.3Zm-1.726,24.752V755.085h-25.041v24.752Zm0-30.073V734.156h-25.041v15.608Zm0-20.939V711.158h-25.041v17.667Zm0-23V668.571c-8.284,2.651-18.058,13.371-25.041,22.683v14.583h25.041Zm-26.757,74.009V755.085h-28.029v24.752Zm0-30.073V734.156h-19.754c-1.874,5.163-3.748,10.346-5.947,15.608h25.692Zm0-20.939V711.158h-10.484c-2.87,5.912-5.158,11.785-7.328,17.667Zm0-23V693.6c-1.962,2.739-3.649,5.272-4.911,7.331-1.006,1.635-1.943,3.271-2.84,4.9h7.742Zm-29.745,74.009V758.7a124.243,124.243,0,0,1-13.2,21.136h13.186ZM1873,800.253l-3.205.059h-28.088V778.556H1873Zm1.726-42.439v15.4h12.081C1882.6,768.19,1878.742,763,1874.728,757.814Zm-1.726,15.4V755.607l-.414-.522h-30.879v18.13H1873Zm-37.27,27.087c-3.679-4.749-7.466-9.44-9.931-14.869a36.568,36.568,0,0,1-2.328-6.888h16.51V800.3Zm5.977-61.7v11.154h26.54C1860.693,740.778,1853.711,733.969,1841.709,738.6Zm-1.726,34.615v-18.13h-14.36a41.579,41.579,0,0,0-2.929,17.874l.02.256Zm0-23.461V739.339q-.8.37-1.627.8a26.3,26.3,0,0,0-10.03,9.627h11.657ZM2267.27,800.3h11.608a1.213,1.213,0,0,1,.612-.167V762.17c0-7.38-6.411-5.567-6.411-9.4h0c0,3.833-6.41,2.059-6.41,9.676v37.7a1.215,1.215,0,0,1,.612.167Zm-38.6-194.045h11.006a1.475,1.475,0,0,1,1.4,1.527v1.123a2.556,2.556,0,0,1-2.436,2.651h-.335v15.48h-8.274v-15.48h-.325a2.564,2.564,0,0,1-2.446-2.651v-1.123a1.47,1.47,0,0,1,1.41-1.527Zm-1.607,21.678h14.646a1.476,1.476,0,0,1,1.41,1.527v2.3a3.7,3.7,0,0,1-3.521,3.823h-.079v25.9H2229.25v-25.9h-.079a3.7,3.7,0,0,1-3.521-3.823v-2.3a1.469,1.469,0,0,1,1.41-1.527Zm-.976,34.28h16.588a1.571,1.571,0,0,1,1.6,1.527v2.3a3.922,3.922,0,0,1-3.984,3.823h-.089V717.73l-4.744,3.6v16.111h-2.436V721.465l-4.448-3.734V669.862h-.1a3.922,3.922,0,0,1-3.984-3.823v-2.3A1.57,1.57,0,0,1,2226.085,662.216Zm18.511,45.523h57.1v-7.922c0-15.293-10.336-28.082-23.8-30.526a.562.562,0,0,0-.079-.04,7.769,7.769,0,0,1-4.744-5.2c-.138,1.971-2.633,3.971-4.083,4.867-.1.059-.276.187-.493.345-13.511,2.384-23.916,15.214-23.916,30.546v7.922Zm-.3,1.98h7.2v27.806h-7.2Zm8.442,0h7.2v27.806h-7.2Zm8.442,0h7.2v27.806h-7.2Zm8.442,0h7.2v27.806h-7.2Zm8.442,0h7.2v27.806h-7.2Zm8.442,0h7.2v27.806h-7.2Zm8.442,0h7.2v27.806h-7.2ZM2247.9,720.47h0a2.155,2.155,0,0,1,2.051,2.227v5.518H2246a.153.153,0,0,1-.138-.158V722.7a2.149,2.149,0,0,1,2.052-2.227Zm8.442,0h0a2.155,2.155,0,0,1,2.051,2.227v5.518h-3.955a.154.154,0,0,1-.148-.158V722.7A2.149,2.149,0,0,1,2256.343,720.47Zm8.442,0h0a2.155,2.155,0,0,1,2.052,2.227v5.518h-3.955a.153.153,0,0,1-.138-.158V722.7a2.149,2.149,0,0,1,2.051-2.227Zm8.442,0h0a2.156,2.156,0,0,1,2.052,2.227v5.518h-3.955a.153.153,0,0,1-.138-.158V722.7a2.149,2.149,0,0,1,2.052-2.227Zm8.442,0h0a2.155,2.155,0,0,1,2.051,2.227v5.518h-3.955a.153.153,0,0,1-.138-.158V722.7a2.149,2.149,0,0,1,2.052-2.227Zm8.442,0h0a2.155,2.155,0,0,1,2.052,2.227v5.518h-3.955a.153.153,0,0,1-.138-.158V722.7a2.149,2.149,0,0,1,2.052-2.227Zm8.442,0h0a2.156,2.156,0,0,1,2.052,2.227v5.518h-3.955a.161.161,0,0,1-.148-.158V722.7a2.155,2.155,0,0,1,2.052-2.227Zm-69.973-1.183h0l2.9,3.143v15.086h-5.8V722.43Zm11.578,0h0l2.9,3.143v15.086h-5.79V722.43l2.9-3.143Zm66.255-114.7h10.425V591.271l-3.807-4.138h-.247v-9.046a1.046,1.046,0,0,0-1-1.084h0a1.053,1.053,0,0,0-1,1.084v9.046h-.286l-4.1,4.454v13Zm-.286,1.665h11.006a1.476,1.476,0,0,1,1.41,1.527V608.9a2.563,2.563,0,0,1-2.436,2.651h-.335v15.48H2307.5v-15.48h-.335a2.564,2.564,0,0,1-2.446-2.651v-1.123a1.47,1.47,0,0,1,1.41-1.527Zm-1.617,21.678h14.646a1.476,1.476,0,0,1,1.41,1.527v2.3a3.7,3.7,0,0,1-3.521,3.823h-.089v25.9H2306.7v-25.9h-.079a3.7,3.7,0,0,1-3.521-3.823v-2.3a1.47,1.47,0,0,1,1.41-1.527Zm-.976,34.28h16.588a1.571,1.571,0,0,1,1.6,1.527v2.3a3.922,3.922,0,0,1-3.984,3.823h-.1V717.72l-4.744,3.6v16.11h-2.436V721.455l-4.448-3.734V669.852h-.1a3.921,3.921,0,0,1-3.984-3.823v-2.3a1.568,1.568,0,0,1,1.588-1.527Zm2.5,57.071h0l2.9,3.143v15.086h-5.79V722.42l2.9-3.143Zm11.588,0h0l2.9,3.143v15.086h-5.789V722.42l2.9-3.143Zm-820.914-60.855h132.964a8.076,8.076,0,0,1-1.253-1.084,9.375,9.375,0,0,1-1.7-2.473H1496.714Zm155.105,0h133.536v-3.557H1654.778A8.449,8.449,0,0,1,1651.82,658.422Zm-154.109,1.232h135.322a6.562,6.562,0,0,0,.986.03h6.687q.385,0,.769-.03h3.905c.227.02.464.03.72.03.641,0,1.312.02,1.953,0,.109,0,.207-.01.316-.02h136v17.323H1497.71V659.664Zm-1.223,21.727H1785.81l3.393-3.094H1494.475l-.01,1.36Zm242.466,9.676h18.4v95.727h-18.4Zm-21.4,0h18.4v95.727h-18.4Zm-21.4,0h18.4v95.727h-18.4v-21.51l6.785-2.7-.02-2.818h2.15v-7.7h-1.2l.7-.877h.5v-.621l.592-.739v1.36h3.412v-4.907h-3.412v2.838l-.592-.138v-2.7h-3.412v1.912l-.592-.138v-1.774h-3.412v.976l-1.489-.345v-55.84Zm-21.4,0h18.4V746.2l-4.034-.946H1674.75v-54.2Zm18.4,75.409v20.318h-8.995V768.831h3.067Zm-16.6,20.318h-1.8V768.831h1.8v.02h-.315v4.365h.315v.778h-.315v6.838h.315v.975h-.315v3.124h.315v1.842Zm-23.206-95.727h18.4v54.2h-18.4Zm18.4,77.764v4.267h-14.488V768.82h14.488Zm0,4.73v13.223h-6.687V773.55Zm-7.347,13.223h-7.14V773.55h7.14Zm-32.457-95.727h18.4v54.2h-18.4Zm17.713,95.727h-8.3V773.55h8.3Zm-9.142,0h-8.57V773.55h8.57Zm-8.57-13.7v-4.267h17.713v4.267h-17.722Zm-21.4-82.03h18.4v54.2h-18.4Zm13.295,95.727h-6.411V773.55h6.411Zm-7.052,0h-6.243V773.55h6.243Zm-6.243-13.7v-4.267h13.295v4.267h-13.295Zm-21.4-82.03h18.4v54.2h-11.164l-4.734,1.005h-1.016v.217l-1.489.315Zm18.4,77.764v17.953h-1.706v-1.842h.217V781.8h-.217v-.975h.217v-6.838h-.217v-.778h.217V768.84h-.217v-.02h1.706Zm-9.32,17.953h-9.083V765.549l8.156,3.261h.937v17.953Zm-30.484-95.726h18.4v56.382l-1.489.315v-1.488h-3.412v2.217l-.592.128v-2.335h-3.412v4.907h3.412V750.8l1.006,1.242h-4.428v7.7h5.434v3.232l3.472,1.389v22.417h-18.4V691.047Zm-21.4,0h18.4v95.726h-18.4Zm-21.4,0h18.4v95.726h-18.4Zm-21.391,0h18.4v95.726h-18.4Zm9.5,4.326h3.412v5.183h-3.412Zm-4,0h3.412v5.183h-3.412Zm-4,0h3.412v5.183h-3.412Zm12.012,0h3.412v5.183h-3.412Zm-4,6.109h3.412v8.119h-3.412Zm-4,0h3.412v8.119h-3.412Zm-4,0h3.412v8.119h-3.412Zm12.012,0h3.412v8.119h-3.412Zm-4,9.282h3.412v3.715h-3.412Zm-4,0h3.412v3.715h-3.412Zm-4,0h3.412v3.715h-3.412Zm12.012,0h3.412v3.715h-3.412Zm17.4-15.391h3.412v5.183h-3.412Zm-4,0h3.412v5.183h-3.412Zm-4,0h3.412v5.183h-3.412Zm12.012,0h3.412v5.183h-3.412Zm-4,6.109h3.412v8.119h-3.412Zm-4,0h3.412v8.119h-3.412Zm-4,0h3.412v8.119h-3.412Zm12.012,0h3.412v8.119h-3.412Zm-4,9.282h3.412v3.715h-3.412Zm-4,0h3.412v3.715h-3.412Zm-4,0h3.412v3.715h-3.412Zm12.012,0h3.412v3.715h-3.412Zm17.4-15.391h3.412v5.183h-3.412Zm-4,0h3.412v5.183h-3.412Zm-4,0h3.412v5.183h-3.412Zm12.012,0h3.412v5.183h-3.412Zm-4,6.109h3.412v8.119h-3.412Zm-4,0h3.412v8.119h-3.412Zm-4,0h3.412v8.119h-3.412Zm12.012,0h3.412v8.119h-3.412Zm-4,9.282h3.412v3.715h-3.412Zm-4,0h3.412v3.715h-3.412Zm-4,0h3.412v3.715h-3.412Zm12.012,0h3.412v3.715h-3.412Zm17.4-15.391h3.412v5.183h-3.412Zm-4,0h3.412v5.183h-3.412Zm-4,0h3.412v5.183h-3.412Zm12.012,0h3.412v5.183h-3.412Zm-4,6.109h3.412v8.119h-3.412Zm-4,0h3.412v8.119h-3.412Zm-4,0h3.412v8.119h-3.412Zm12.012,0h3.412v8.119h-3.412Zm-4,9.282h3.412v3.715h-3.412Zm-4,0h3.412v3.715h-3.412Zm-4,0h3.412v3.715h-3.412Zm12.012,0h3.412v3.715h-3.412Zm17.4-15.391h3.412v5.183h-3.412Zm-4,0h3.412v5.183h-3.412Zm-4,0h3.412v5.183h-3.412Zm12.012,0h3.412v5.183h-3.412Zm-4,6.109h3.412v8.119h-3.412Zm-4,0h3.412v8.119h-3.412Zm-4,0h3.412v8.119h-3.412Zm12.012,0h3.412v8.119h-3.412Zm-4,9.282h3.412v3.715h-3.412Zm-4,0h3.412v3.715h-3.412Zm-4,0h3.412v3.715h-3.412Zm12.012,0h3.412v3.715h-3.412Zm17.4-15.391h3.412v5.183h-3.412Zm-4,0h3.412v5.183h-3.412Zm-4,0h3.412v5.183h-3.412Zm12.012,0h3.412v5.183h-3.412Zm-4,6.109h3.412v8.119h-3.412Zm-4,0h3.412v8.119h-3.412Zm-4,0h3.412v8.119h-3.412Zm12.012,0h3.412v8.119h-3.412Zm-4,9.282h3.412v3.715h-3.412Zm-4,0h3.412v3.715h-3.412Zm-4,0h3.412v3.715h-3.412Zm12.012,0h3.412v3.715h-3.412Zm17.4-15.391h3.412v5.183h-3.412Zm-4,0h3.412v5.183h-3.412Zm-4,0h3.412v5.183h-3.412Zm12.012,0h3.412v5.183h-3.412Zm-4,6.109h3.412v8.119h-3.412Zm-4,0h3.412v8.119h-3.412Zm-4,0h3.412v8.119h-3.412Zm12.012,0h3.412v8.119h-3.412Zm-4,9.282h3.412v3.715h-3.412Zm-4,0h3.412v3.715h-3.412Zm-4,0h3.412v3.715h-3.412Zm12.012,0h3.412v3.715h-3.412Zm17.4-15.391h3.412v5.183h-3.412Zm-4,0h3.412v5.183h-3.412Zm-4,0h3.412v5.183h-3.412Zm12.012,0h3.412v5.183h-3.412Zm-4,6.109h3.412v8.119h-3.412Zm-4,0h3.412v8.119h-3.412Zm-4,0h3.412v8.119h-3.412Zm12.012,0h3.412v8.119h-3.412Zm-4,9.282h3.412v3.715h-3.412Zm-4,0h3.412v3.715h-3.412Zm-4,0h3.412v3.715h-3.412Zm12.012,0h3.412v3.715h-3.412Zm17.4-15.391h3.412v5.183h-3.412Zm-4,0h3.412v5.183h-3.412Zm-4,0h3.412v5.183h-3.412Zm12.012,0h3.412v5.183h-3.412Zm-4,6.109h3.412v8.119h-3.412Zm-4,0h3.412v8.119h-3.412Zm-4,0h3.412v8.119h-3.412Zm12.012,0h3.412v8.119h-3.412Zm-4,9.282h3.412v3.715h-3.412Zm-4,0h3.412v3.715h-3.412Zm-4,0h3.412v3.715h-3.412Zm12.012,0h3.412v3.715h-3.412Zm17.4-15.391h3.412v5.183h-3.412Zm-4,0h3.412v5.183h-3.412Zm-4,0h3.412v5.183h-3.412Zm12.012,0h3.413v5.183h-3.413Zm-4,6.109h3.412v8.119h-3.412Zm-4,0h3.412v8.119h-3.412Zm-4,0h3.412v8.119h-3.412Zm12.012,0h3.412v8.119h-3.412Zm-4,9.282h3.412v3.715h-3.412Zm-4,0h3.412v3.715h-3.412Zm-4,0h3.412v3.715h-3.412Zm12.012,0h3.412v3.715h-3.412Zm17.4-15.391h3.412v5.183h-3.412Zm-4,0h3.412v5.183h-3.412Zm-4,0h3.412v5.183h-3.412Zm12.012,0h3.412v5.183h-3.412Zm-4,6.109h3.412v8.119h-3.412Zm-4,0h3.412v8.119h-3.412Zm-4,0h3.412v8.119h-3.412Zm12.012,0h3.412v8.119h-3.412Zm-4,9.282h3.412v3.715h-3.412Zm-4,0h3.412v3.715h-3.412Zm-4,0h3.412v3.715h-3.412Zm12.012,0h3.412v3.715h-3.412Zm17.4-15.391h3.412v5.183h-3.412Zm-4,0h3.412v5.183h-3.412Zm-4,0h3.412v5.183h-3.412Zm12.012,0h3.412v5.183h-3.412Zm-4,6.109h3.412v8.119h-3.412Zm-4,0h3.412v8.119h-3.412Zm-4,0h3.412v8.119h-3.412Zm12.012,0h3.412v8.119h-3.412Zm-4,9.282h3.412v3.715h-3.412Zm-4,0h3.412v3.715h-3.412Zm-4,0h3.412v3.715h-3.412Zm12.012,0h3.412v3.715h-3.412Zm-247.417,17.776h7.416v7.686h-7.416Zm8.008,0h7.417v7.686h-7.417Zm4-5.794h3.412v4.907h-3.412Zm-12.012,0h3.412v4.907h-3.412Zm4,0h3.412v4.907h-3.412Zm4,0h3.412v4.907h-3.412Zm13.393,5.794h7.417v7.686h-7.417Zm8.008,0h7.417v7.686h-7.417Zm4-5.794h3.412v4.907h-3.412Zm-12.013,0h3.412v4.907h-3.412Zm4,0h3.412v4.907h-3.412Zm4,0h3.412v4.907h-3.412Zm13.393,5.794h7.417v7.686h-7.417Zm8.008,0h7.417v7.686h-7.417Zm4-5.794h3.412v4.907h-3.412Zm-12.012,0h3.412v4.907h-3.412Zm4,0h3.412v4.907h-3.412Zm4,0h3.412v4.907h-3.412Zm13.393,5.794h7.417v7.686h-7.417Zm8.008,0h7.417v7.686h-7.417Zm4-5.794h3.412v4.907h-3.412Zm-12.012,0h3.412v4.907h-3.412Zm4,0h3.412v4.907h-3.412Zm4,0h3.412v4.907h-3.412Zm13.393,5.794h7.417v7.686h-7.417Zm8.008,0h7.417v7.686h-7.417Zm4-5.794h3.412v4.907h-3.412Zm-12.012,0h3.412v4.907h-3.412Zm4,0h3.412v4.907h-3.412Zm4,0h3.412v4.907h-3.412Zm13.393,5.794h7.416v7.686h-7.416Zm8.008,0h7.416v7.686h-7.416Zm4-5.794h3.412v4.907h-3.412Zm-12.012,0h3.412v4.907h-3.412Zm4,0h3.412v4.907h-3.412Zm4,0h3.412v4.907h-3.412Zm13.393,5.794h7.417v7.686h-7.417Zm8.008,0h7.416v7.686h-7.416Zm4-5.794h3.412v4.907h-3.412Zm-12.012,0h3.412v4.907h-3.412Zm4,0h3.412v4.907h-3.412Zm4,0h3.412v4.907h-3.412Zm13.393,5.794h7.417v7.686h-7.417Zm8.008,0h7.426v7.686h-7.426Zm4-5.794h3.412v4.907h-3.412Zm-12.012,0h3.412v4.907h-3.412Zm4,0h3.412v4.907h-3.412Zm4,0h3.412v4.907h-3.412Zm13.393,5.794h7.426v7.686h-7.426Zm8.008,0h7.426v7.686h-7.426Zm4-5.794h3.412v4.907h-3.412Zm-12.012,0h3.412v4.907h-3.412Zm4,0h3.412v4.907h-3.412Zm4,0h3.412v4.907h-3.412Zm13.393,5.794h7.426v7.686h-7.426Zm8.008,0h7.417v7.686h-7.417Zm4-5.794h3.412v4.907h-3.412Zm-12.012,0h3.412v4.907h-3.412Zm4,0h3.412v4.907h-3.412Zm4,0h3.412v4.907h-3.412Zm13.393,5.794h7.417v7.686h-7.417Zm8.008,0h7.417v7.686h-7.417Zm4-5.794h3.412v4.907h-3.412Zm-12.012,0h3.412v4.907h-3.412Zm4,0h3.412v4.907h-3.412Zm4,0h3.412v4.907h-3.412Zm13.393,5.794h7.417v7.686h-7.417Zm8.008,0h7.416v7.686h-7.416Zm4-5.794h3.412v4.907h-3.412Zm-12.012,0h3.412v4.907h-3.412Zm4,0h3.412v4.907h-3.412Zm4,0h3.412v4.907h-3.412Zm11.864-31.7h18.4v95.726h-18.4Zm9.5,4.326h3.412v5.183h-3.412Zm-4,0h3.412v5.183h-3.412Zm-4,0h3.412v5.183h-3.412Zm12.022,0h3.412v5.183h-3.412Zm-4,6.109h3.412v8.119h-3.412Zm-4,0h3.412v8.119h-3.412Zm-4,0h3.412v8.119h-3.412Zm12.022,0h3.412v8.119h-3.412Zm-4,9.282h3.412v3.715h-3.412Zm-4,0h3.412v3.715h-3.412Zm-4,0h3.412v3.715h-3.412Zm12.022,0h3.412v3.715h-3.412Zm-12.022,17.776h7.426v7.686h-7.426Zm8.008,0h7.417v7.686h-7.417Zm4-5.794h3.412v4.907h-3.412Zm-12.022,0h3.412v4.907h-3.412Zm4,0h3.412v4.907h-3.412Zm4,0h3.412v4.907h-3.412ZM1513.063,768.82h3.412v4.365h-3.412Zm-4,0h3.412v4.365h-3.412Zm-4,0h3.412v4.365h-3.412Zm12.012,0h3.412v4.365h-3.412Zm-4,5.143h3.412V780.8h-3.412Zm-4,0h3.412V780.8h-3.412Zm-4,0h3.412V780.8h-3.412Zm12.012,0h3.412V780.8h-3.412Zm-4,7.814h3.412V784.9h-3.412Zm-4,0h3.412V784.9h-3.412Zm-4,0h3.412V784.9h-3.412Zm12.012,0h3.412V784.9h-3.412Zm17.4-12.957h3.412v4.365h-3.412Zm-4,0h3.412v4.365h-3.412Zm-4,0h3.412v4.365h-3.412Zm12.012,0h3.412v4.365h-3.412Zm-4,5.144h3.412V780.8h-3.412Zm-4,0h3.412V780.8h-3.412Zm-4,0h3.412V780.8h-3.412Zm12.012,0h3.412V780.8h-3.412Zm-4,7.814h3.412V784.9h-3.412Zm-4,0h3.412V784.9h-3.412Zm-4,0h3.412V784.9h-3.412Zm12.012,0h3.412V784.9h-3.412Zm17.4-12.957h3.412v4.365h-3.412Zm-4,0h3.412v4.365h-3.412Zm-4,0h3.412v4.365h-3.412Zm12.012,0h3.412v4.365h-3.412Zm-4,5.144h3.412V780.8h-3.412Zm-4,0h3.412V780.8h-3.412Zm-4,0h3.412V780.8h-3.412Zm12.012,0h3.412V780.8h-3.412Zm-4,7.813h3.412V784.9h-3.412Zm-4,0h3.412V784.9h-3.412Zm-4,0h3.412V784.9h-3.412Zm12.012,0h3.412V784.9h-3.412Zm17.4-12.957h3.412v4.365h-3.412Zm-4,0h3.412v4.365h-3.412Zm-4,0h3.412v4.365h-3.412Zm12.012,0h3.412v4.365h-3.412Zm-4,5.143h3.412V780.8h-3.412Zm-4,0h3.412V780.8h-3.412Zm-4,0h3.412V780.8h-3.412Zm12.012,0h3.412V780.8h-3.412Zm-4,7.814h3.412V784.9h-3.412Zm-4,0h3.412V784.9h-3.412Zm-4,0h3.412V784.9h-3.412Zm12.012,0h3.412V784.9h-3.412Zm13.393-12.957h3.412v4.365h-3.412Zm-4,0h3.412v4.365h-3.412Zm4,5.143h3.412V780.8h-3.412Zm-4,0h3.412V780.8h-3.412Zm4,7.814h3.412V784.9h-3.412Zm-4,0h3.412V784.9h-3.412Zm93.614-12.957h3.412v4.365h-3.412Zm4,0h3.412v4.365h-3.412Zm-4,5.143h3.412V780.8h-3.412Zm4,0h3.412V780.8h-3.412Zm-4,7.814h3.412V784.9h-3.412Zm4,0h3.412V784.9h-3.412Zm17.4-12.957h3.412v4.365h-3.412Zm-4,0h3.412v4.365h-3.412Zm-4,0h3.412v4.365h-3.412Zm12.012,0h3.412v4.365h-3.412Zm-4,5.144h3.412V780.8h-3.412Zm-4,0h3.412V780.8h-3.412Zm-4,0h3.412V780.8h-3.412Zm12.012,0h3.412V780.8h-3.412Zm-4,7.814h3.412V784.9h-3.412Zm-4,0h3.412V784.9h-3.412Zm-4,0h3.412V784.9h-3.412Zm12.012,0h3.412V784.9h-3.412Zm17.4-12.957h3.412v4.365h-3.412Zm-4,0h3.412v4.365h-3.412Zm-4,0h3.412v4.365h-3.412Zm12.012,0h3.412v4.365h-3.412Zm-4,5.144h3.412V780.8h-3.412Zm-4,0h3.412V780.8h-3.412Zm-4,0h3.412V780.8h-3.412Zm12.012,0h3.412V780.8h-3.412Zm-4,7.813h3.412V784.9h-3.412Zm-4,0h3.412V784.9h-3.412Zm-4,0h3.412V784.9h-3.412Zm12.012,0h3.412V784.9h-3.412Zm17.4-12.957h3.412v4.365h-3.412Zm-4,0h3.412v4.365h-3.412Zm-4,0h3.412v4.365h-3.412Zm12.012,0h3.412v4.365h-3.412Zm-4,5.143h3.412V780.8h-3.412Zm-4,0h3.412V780.8h-3.412Zm-4,0h3.412V780.8h-3.412Zm12.012,0h3.413V780.8h-3.413Zm-4,7.814h3.412V784.9h-3.412Zm-4,0h3.412V784.9h-3.412Zm-4,0h3.412V784.9h-3.412Zm12.012,0h3.412V784.9h-3.412Zm17.358-12.957h3.412v4.365h-3.412Zm-4,0h3.412v4.365h-3.412Zm-4,0h3.412v4.365h-3.412Zm12.022,0h3.412v4.365h-3.412Zm-4,5.144h3.412V780.8h-3.412Zm-4,0h3.412V780.8h-3.412Zm-4,0h3.412V780.8h-3.412Zm12.022,0h3.412V780.8h-3.412Zm-4,7.814h3.412V784.9h-3.412Zm-4,0h3.412V784.9h-3.412Zm-4,0h3.412V784.9h-3.412Zm12.022,0h3.412V784.9h-3.412Zm-268.789-29.758h7.417v7.7h-7.417Zm8.008,0h7.417v7.7h-7.417Zm4-5.784h3.412v4.907h-3.412Zm-12.012,0h3.412v4.907h-3.412Zm4,0h3.412v4.907h-3.412Zm4,0h3.412v4.907h-3.412Zm13.393,5.784h7.416v7.7h-7.416Zm8.008,0h7.416v7.7h-7.416Zm4-5.784h3.412v4.907H1538.5Zm-12.012,0h3.412v4.907h-3.412Zm4,0h3.412v4.907h-3.412Zm4,0h3.412v4.907h-3.412Zm13.393,5.784h7.417v7.7h-7.417Zm8.008,0h7.416v7.7h-7.416Zm4-5.784h3.412v4.907H1559.9Zm-12.012,0h3.412v4.907h-3.412Zm4,0h3.412v4.907h-3.412Zm4,0h3.412v4.907h-3.412Zm13.393,5.784h7.417v7.7h-7.417Zm0-5.784h3.412v4.907h-3.412Zm4,0h3.412v4.907h-3.412Zm132.412,5.784h7.417v7.7H1705.7Zm4-5.784h3.412v4.907h-3.412Zm9.389,5.784h7.416v7.7H1719.1Zm8.008,0h7.417v7.7H1727.1Zm4-5.784h3.412v4.907h-3.412Zm-12.012,0h3.412v4.907H1719.1Zm4,0h3.412v4.907H1723.1Zm4,0h3.412v4.907H1727.1Zm13.393,5.784h7.416v7.7H1740.5Zm8.008,0h7.417v7.7h-7.417Zm4-5.784h3.412v4.907h-3.412Zm-12.012,0h3.412v4.907H1740.5Zm4,0h3.412v4.907H1744.5Zm4,0h3.412v4.907h-3.412Zm13.354,5.784h7.426v7.7h-7.426Zm8.008,0h7.416v7.7h-7.416Zm4-5.784h3.412v4.907h-3.412Zm-12.022,0h3.413v4.907h-3.413Zm4,0h3.412v4.907h-3.412Zm4,0h3.412v4.907h-3.412Zm-253.719-81.981h1.7v6.957h-1.7Zm20.681,0h1.7v6.957h-1.7Zm20.681,0h1.7v6.957h-1.7Zm20.681,0h1.706v6.957h-1.706Zm20.681,0h1.706v6.957h-1.706Zm20.681,0h1.7v6.957h-1.7Zm20.681,0h1.7v6.957h-1.7Zm20.681,0h1.7v6.957h-1.7Zm20.681,0h1.7v6.957h-1.7Zm20.681,0h1.706v6.957h-1.706Zm20.681,0h1.706v6.957h-1.706Zm20.681,0h1.7v6.957h-1.7Zm20.681,0h1.7v6.957h-1.7ZM1606.6,750.7h30.79a4.349,4.349,0,0,1,5.513,0h35.958v8.04h-35.81a4.372,4.372,0,0,1-5.809,0H1606.6Zm-1.1,0h-8.245v8.04h8.245Zm-9.32,0-10.454,1.882v8.04l10.454-1.882Zm83.889,0h8.245v8.04h-8.245Zm9.438,0,10.454,1.882v8.04l-10.454-1.882Zm-2.614,15.756,13.926-5.547-.049-8.523,1.391-1.734-13.216-3.074h-92.292l-13.373,2.848,1.6,1.971v8.927l12.851,5.143h2.061v-3.409h4.625v3.409h21.125v-3.409h4.477v3.409H1651v-3.409h5.01v3.409h21.628v-3.409h5.188v3.409h4.053Zm-86.463-2.749h3.3v28.378h-3.3Zm25.613,0h3.3v28.378h-3.3Zm25.82,0h3.314v28.378h-3.314Zm26.885,0h3.3v28.378h-3.3Zm-109.226,27.146-16.125-.02-6.42,6.829h15.5Zm30.031-.818h-26.283l-9.428,9.43h152.61l-9.429-9.43h-107.48Zm111.691.818,16.125-.02,6.421,6.829h-15.5Zm1.9,6.257H1567.61v1.173h145.529v-1.173Zm-143.192-2.286H1710.93V796H1569.947Zm2.643-2.237h135.854v1.163H1572.591Zm37.457-39.611H1611a2.978,2.978,0,0,1,.68.059.679.679,0,0,1,.375.256,1.073,1.073,0,0,1,.148.64.632.632,0,0,1-.109.414.7.7,0,0,1-.394.177.778.778,0,0,1,.454.227.844.844,0,0,1,.118.493v.315a1.165,1.165,0,0,1-.089.512.437.437,0,0,1-.266.227,3.177,3.177,0,0,1-.769.059h-1.1v-3.38Zm.957.572v.749c.039,0,.069-.01.1-.01.089,0,.158-.02.178-.059a1.108,1.108,0,0,0,.04-.365.529.529,0,0,0-.03-.217.152.152,0,0,0-.079-.079.738.738,0,0,0-.2-.02Zm0,1.281v.946a.46.46,0,0,0,.256-.059c.04-.029.049-.118.049-.256v-.315c0-.148-.01-.236-.049-.266A.43.43,0,0,0,1611,754.828Zm3.383-1.852.552,3.38h-.986l-.05-.611h-.345l-.049.611h-.986l.483-3.38Zm-.513,2.168q-.074-.576-.148-1.419-.148.976-.177,1.419Zm3.62-2.168-.542,1.527.6,1.852h-.986l-.385-1.448v1.448h-.957v-3.38h.957v1.311l.434-1.311h.9Zm1.292,0v3.38h-.957v-3.38Zm1.233,0h.71a4.728,4.728,0,0,1,.937.059.834.834,0,0,1,.375.187.669.669,0,0,1,.158.3,4.6,4.6,0,0,1,.03.65v1.182a2.607,2.607,0,0,1-.049.611.438.438,0,0,1-.158.236.625.625,0,0,1-.286.118,3.226,3.226,0,0,1-.513.029h-1.2v-3.38Zm.957.572v2.227c.138,0,.217-.03.247-.079a1.051,1.051,0,0,0,.049-.414v-1.32c0-.158-.01-.256-.01-.3a.181.181,0,0,0-.069-.1.51.51,0,0,0-.207-.029Zm3.915,1.409a6.046,6.046,0,0,1-.03.719.741.741,0,0,1-.158.384.908.908,0,0,1-.375.276,1.526,1.526,0,0,1-.542.089,1.416,1.416,0,0,1-.523-.089.815.815,0,0,1-.375-.266.672.672,0,0,1-.168-.384,6,6,0,0,1-.03-.729v-.581c0-.345.01-.581.02-.719a.793.793,0,0,1,.168-.384.911.911,0,0,1,.375-.276,1.525,1.525,0,0,1,.542-.089,1.508,1.508,0,0,1,.533.089.815.815,0,0,1,.375.266.675.675,0,0,1,.168.384,6.034,6.034,0,0,1,.03.729v.581Zm-.957-1.113a.981.981,0,0,0-.03-.305.116.116,0,0,0-.118-.069.128.128,0,0,0-.109.049.836.836,0,0,0-.039.315v1.577a2.361,2.361,0,0,0,.02.364.112.112,0,0,0,.118.069c.059,0,.108-.02.118-.079a1.434,1.434,0,0,0,.029-.374v-1.547Zm-.345-1.518v.542H1623v-.542Zm1,0v.542h-.592v-.542Zm3.057.65-.483,3.38h-1.45l-.552-3.38h1.016c.118.926.2,1.714.246,2.365.049-.65.108-1.232.158-1.734l.059-.631h1.016Zm1.243,0v2.7h.572v.68h-1.538v-3.38h.957Zm1.854,2.444a1.376,1.376,0,0,0,.03.365c.01.05.059.069.118.069s.108-.019.128-.079a1.436,1.436,0,0,0,.03-.374v-.463h-.3v.492Zm-.957-1.478a2.034,2.034,0,0,1,.02-.286.713.713,0,0,1,.168-.384.91.91,0,0,1,.375-.276,1.524,1.524,0,0,1,.542-.089,1.508,1.508,0,0,1,.533.089.815.815,0,0,1,.375.266.673.673,0,0,1,.168.384,6.02,6.02,0,0,1,.03.729v.581a5.933,5.933,0,0,1-.03.719.644.644,0,0,1-.168.384.908.908,0,0,1-.375.276,1.526,1.526,0,0,1-.542.089,1.509,1.509,0,0,1-.533-.089.814.814,0,0,1-.375-.266.673.673,0,0,1-.168-.384,6.725,6.725,0,0,1-.02-.729v-.67h1.252v-.453a.979.979,0,0,0-.03-.306.119.119,0,0,0-.118-.059.132.132,0,0,0-.118.049.827.827,0,0,0-.04.315v.1h-.957Zm4.606-.966v.67h-.562v2.71h-.957v-2.71h-.562v-.67h2.091Zm37.053,0v3.38h-.957v-3.38Zm-1.292,0v.67h-.562v2.71h-.957v-2.71h-.572v-.67h2.091Zm-3.915,0h1.6v.67h-.641v.65h.592v.641h-.592v.739h.7v.68h-1.667v-3.38Zm-.335,0v.67h-.562v2.71h-.957v-2.71h-.572v-.67h2.091Zm-2.426,0v3.38h-.957v-3.38Zm-1.46,1.025h-.888v-.246a.554.554,0,0,0-.03-.227.159.159,0,0,0-.247.02.347.347,0,0,0-.04.2.586.586,0,0,0,.05.256.8.8,0,0,0,.276.207,2.572,2.572,0,0,1,.8.572,1.632,1.632,0,0,1,.079,1.251.719.719,0,0,1-.355.286,1.438,1.438,0,0,1-.612.118,1.52,1.52,0,0,1-.661-.128.711.711,0,0,1-.355-.345,1.751,1.751,0,0,1-.089-.581v-.227h.888v.414a.482.482,0,0,0,.04.246c.03.039.069.049.138.049a.178.178,0,0,0,.148-.069.4.4,0,0,0,.049-.207.572.572,0,0,0-.089-.384,2.531,2.531,0,0,0-.444-.306,4.651,4.651,0,0,1-.473-.315.718.718,0,0,1-.187-.276,1.153,1.153,0,0,1-.079-.443,1.192,1.192,0,0,1,.109-.572.782.782,0,0,1,.345-.286,1.5,1.5,0,0,1,.582-.1,1.687,1.687,0,0,1,.631.108.637.637,0,0,1,.345.276,1.314,1.314,0,0,1,.089.571V754Zm-3.689-.444v.749a.491.491,0,0,0,.217-.039c.04-.03.069-.118.069-.266v-.187a.256.256,0,0,0-.069-.207.4.4,0,0,0-.227-.049Zm-.957-.571h.68a4.811,4.811,0,0,1,.917.049.678.678,0,0,1,.395.246,1.04,1.04,0,0,1,.148.631.93.93,0,0,1-.108.532.566.566,0,0,1-.424.158.775.775,0,0,1,.385.177.389.389,0,0,1,.118.2,2.745,2.745,0,0,1,.02.5v.887h-.888v-1.123a.719.719,0,0,0-.049-.335.3.3,0,0,0-.237-.069v1.527h-.957Zm-2.051,0h1.6v.67h-.641v.65h.592v.64h-.592v.739h.7v.68h-1.657Zm-.286,0-.483,3.38h-1.45l-.552-3.38h1.016c.109.926.2,1.714.247,2.365.059-.65.109-1.232.158-1.734l.069-.631h1.006Zm-2.771-.65v.463h-.957v-.463Zm0,.65v3.38h-.957v-3.38Zm-1.46,0v3.38h-.838l-.493-1.537v1.537h-.8v-3.38h.8L1650,754.5v-1.517h.8Zm-2.623,0v2.256c0,.246-.01.433-.02.542a.658.658,0,0,1-.168.315.77.77,0,0,1-.355.246,1.644,1.644,0,0,1-.513.079,1.535,1.535,0,0,1-.582-.1.926.926,0,0,1-.375-.257.781.781,0,0,1-.148-.335c-.01-.118-.02-.374-.02-.749v-2h.957v2.532a.868.868,0,0,0,.03.286c.01.04.049.059.1.059a.112.112,0,0,0,.119-.069,1.052,1.052,0,0,0,.03-.325v-2.493h.957Zm15.286-.65v.463h-.957v-.463Zm7.969,0v.463h-.957v-.463Zm-31.619,4.818h.089v.03a.035.035,0,0,1-.01.02l-.01.01h-.109l.01-.01a.035.035,0,0,0,.01-.02h0l.01-.01c.01-.01.02-.01.03-.02Zm0-.039h.069v-.03c0-.01-.01-.01-.01-.02l-.01-.01h-.01v-.01h-.039v.049a.01.01,0,0,0,.01.01c0,.01.01.01.02.02Zm-.118-.03a.01.01,0,0,1,.01.01l.01.01h.049v-.03c0-.01-.01-.01-.01-.02h0l-.01-.01-.01-.01h-.01c-.01,0-.01-.01-.02-.01h-.01v.04c0,.01,0,.01.01.01a.01.01,0,0,0,.01.01l.01.01Zm0,.039h.059v.01a.03.03,0,0,1-.01.02c0,.01-.01.01-.02.02h-.01a.01.01,0,0,0-.01.01h-.079l.02-.02a.01.01,0,0,0,.01-.01c.01,0,.01,0,.01-.01a.01.01,0,0,0,.01-.01h.02Zm-.128-.039h.039c.01,0,.01,0,.02.01h.01l-.01.01h0a.01.01,0,0,1-.01.01l-.02.02a.01.01,0,0,0-.01.01h-.1c.01,0,.01-.01.02-.01h.01a.01.01,0,0,0,.01-.01c.01,0,.02-.01.03-.01Zm0-.03.01.01h.069v-.029c0-.01-.01-.01-.01-.02a.01.01,0,0,0-.01-.01h0l-.01-.01h-.04v.029h0v.01c0,.01,0,.01.01.01s.01.02.02.03Zm-.118-.039.01.01h.059V757c0-.01,0-.02-.01-.02h0c0-.01,0-.01-.01-.01a.01.01,0,0,1-.01-.01l-.01-.01a.035.035,0,0,1-.02-.01h-.02v.039c0,.01,0,.01.01.02a1.112,1.112,0,0,0,.02.02Zm-.01.03h.079v.01a.01.01,0,0,1-.01.01c-.01,0-.01.01-.02.01h-.059a.036.036,0,0,1-.03-.01h-.02l.01-.01a.035.035,0,0,1,.02-.01l.01-.01.01-.01h.03Zm-.1-.089a.009.009,0,0,0,.01.01.01.01,0,0,1,.01.01h.04v-.049a.034.034,0,0,0-.01-.02.01.01,0,0,0-.01-.01l-.01-.01a2.279,2.279,0,0,0-.02-.02h-.02v.059a.01.01,0,0,0,.01.01v.01h0Zm-.01.029h.03c.01,0,.01.01.02.01h0v.01l-.01.01a.01.01,0,0,0-.01.01h-.01c-.01,0-.02.01-.029.01h-.04c-.01,0-.01,0-.02-.01h0l-.01-.01-.01-.01h.01a.035.035,0,0,1,.02-.01h.04Zm-.089-.1a.053.053,0,0,0,.04.03h.02v-.069a.01.01,0,0,1-.01-.01l-.01-.01h-.01v-.01h-.01v.019h0v.03c0,.01.01.02.01.03Zm-.02.03a.075.075,0,0,1,.049.02.01.01,0,0,1,.01.01l.01.01h0a.035.035,0,0,1-.02.01l-.01.01a.01.01,0,0,0-.01.01h-.079a.01.01,0,0,1-.01-.01h-.01l-.01-.01-.01-.01h0a.031.031,0,0,0,.02-.01h.059Zm-.089-.1a.053.053,0,0,0,.04.03c.01,0,.01,0,.01.01h.02v-.029h0v-.04h0a.076.076,0,0,0-.04-.039h-.01v.049a.037.037,0,0,0,.01.029Zm-.01.03a.075.075,0,0,1,.049.02l.01.01v.01h0v.01a.031.031,0,0,0-.02.01h-.039a.335.335,0,0,1-.059-.03h0l-.01-.01v-.01h.02a.01.01,0,0,0,.01-.01h.049Zm-.079-.1a.035.035,0,0,0,.01.02c.01.01.01.01.02.01s.01.01.02.01h0v-.049c0-.01,0-.02-.01-.02V756.7a.01.01,0,0,0-.01-.01l-.01-.01h-.01v.089h0Zm-.01.02c.01.01.02.01.02.02l.02.02.01.01h-.01a.033.033,0,0,1-.02.01h-.079c-.01,0-.01,0-.02-.01l-.01-.01h0v-.01a.01.01,0,0,0-.01-.01h0v-.01h.089Zm-.108-.148v.029h0v.04a.01.01,0,0,0,.01.01c0,.01,0,.01.01.02h.01c.01,0,.01.01.02.01h.03v-.039h0v-.02h0a.01.01,0,0,0-.01-.01l-.01-.01h0v-.01h-.01a.01.01,0,0,1-.01-.01h-.029Zm1.756.532h-.079v.02a.01.01,0,0,0,.01.01.034.034,0,0,0,.01.02l.01.01h.119l-.01-.01-.01-.01h-.02a.01.01,0,0,0-.01-.01c-.01-.01-.02-.01-.03-.02Zm0-.039h-.069v-.02l.01-.01c0-.01.01-.01.01-.02a.01.01,0,0,1,.01-.01h0l.01-.01h.049v.049a.01.01,0,0,1-.01.01c0,.01-.01.01-.02.02Zm.118-.029a.01.01,0,0,0-.01.01v.01h-.04v-.01a.031.031,0,0,1,.01-.02c0-.01.01-.01.01-.02h0a.01.01,0,0,1,.01-.01l.01-.01h.01c.01,0,.01-.01.02-.01h.03v.039a.01.01,0,0,1-.01.01.01.01,0,0,1-.01.01l-.01.01Zm.01.039h-.079v.01a.031.031,0,0,0,.01.02c0,.01.01.01.02.02h0c.01,0,.01,0,.02.01h.079a.034.034,0,0,1-.01-.02.01.01,0,0,1-.01-.01.01.01,0,0,1-.01-.01.01.01,0,0,1-.01-.01h-.01Zm.128-.039h-.059a.03.03,0,0,0-.02.01h0v.01h0v.01l.02.02a.01.01,0,0,1,.01.01h.089a.035.035,0,0,0-.02-.01h-.01a.01.01,0,0,1-.01-.01c-.01,0-.02-.01-.03-.01Zm-.01-.03h-.069v-.03c0-.01.01-.01.01-.02a.01.01,0,0,1,.01-.01h.01v-.01h.04v.03h0v.01c0,.01,0,.01-.01.01s-.01.02-.02.03Zm.118-.039a.01.01,0,0,0-.01.01H1641V757a.035.035,0,0,1,.01-.02h.01c0-.01,0-.01.01-.01l.01-.01.01-.01c.01,0,.01-.01.02-.01h.02V757a.01.01,0,0,1-.01.01l-.01.01Zm.01.03h-.069v.01l.01.01a.035.035,0,0,0,.02.01h.059a.036.036,0,0,0,.03-.01h.02l-.01-.01a.035.035,0,0,0-.02-.01l-.01-.01-.01-.01h-.03Zm.1-.089-.01.01a.01.01,0,0,0-.01.01h-.03v-.049a.034.034,0,0,1,.01-.02c0-.01,0-.01.01-.01a.01.01,0,0,1,.01-.01l.01-.01a.01.01,0,0,0,.01-.01h.02v.059a.01.01,0,0,1-.01.01v.01h0Zm.01.029h-.03a.01.01,0,0,0-.01.01h0v.01l.01.01a.01.01,0,0,1,.01.01h.01c.01,0,.02.01.03.01h.049a.01.01,0,0,0,.01-.01h0c.01,0,.01,0,.01-.01v-.01h0a.035.035,0,0,0-.02-.01h-.039Zm.1-.1a.052.052,0,0,1-.039.03h-.03v-.069l.01-.01a.01.01,0,0,1,.01-.01h.01a.01.01,0,0,0,.01-.01h.01v.02h0v.03c0,.01-.01.019-.01.029Zm.01.03a.074.074,0,0,0-.049.02l-.01.01v.01h0l.01.01a.01.01,0,0,1,.01.01c.01,0,.01,0,.01.01h.059l.01-.01h.01l.01-.01a.01.01,0,0,0,.01-.01h0a.03.03,0,0,1-.02-.01h-.049Zm.089-.1a.053.053,0,0,1-.04.03l-.01.01h-.02v-.03h0v-.04h0a.078.078,0,0,1,.04-.039h.01v.049a.036.036,0,0,1-.01.03Zm.02.03a.075.075,0,0,0-.049.02l-.01.01v.01h-.01l.01.01a.01.01,0,0,1,.01.01h.039a.16.16,0,0,0,.059-.03h0l.01-.01v-.01h-.02a.01.01,0,0,1-.01-.01h-.049Zm.079-.1a.021.021,0,0,1-.02.02c0,.01-.01.01-.02.01l-.01.01h0v-.049c0-.01,0-.02.01-.02v-.02a.01.01,0,0,1,.01-.01.01.01,0,0,1,.01-.01h.02v.089h0Zm.02.02c-.01.01-.02.01-.02.02s-.01.01-.02.02l-.01.01h0a.035.035,0,0,0,.02.01h.069a.01.01,0,0,0,.01-.01l.01-.01h0v-.01l.01-.01h0v-.01h-.079Zm.108-.148v.03h0v.049c0,.01-.01.01-.01.02h-.02c-.01,0-.01.01-.02.01h-.03v-.04h0v-.01l.01-.01h0a.01.01,0,0,1,.01-.01l.01-.01h0v-.01h.01a.01.01,0,0,0,.01-.01h.029Zm-1.381.532c0-.01,0-.02-.01-.02a.01.01,0,0,0-.01-.01c-.01,0-.01,0-.01.01s-.01.01-.01.02,0,.02.01.02,0,.01.01.01a.01.01,0,0,0,.01-.01A.034.034,0,0,0,1640.207,757.153Zm-.069.079h.03l.01.01h.01c.01,0,.01,0,.02-.01a.1.1,0,0,1,.01-.04c-.01.01-.02.02-.03.02s-.03-.01-.03-.02-.01-.02-.01-.039,0-.03.01-.039a.051.051,0,0,1,.039-.02.075.075,0,0,1,.04.02.246.246,0,0,1,0,.138.075.075,0,0,1-.04.02.037.037,0,0,1-.03-.01c-.01,0-.01-.02-.01-.03Zm-.049.039h-.03v-.128a.075.075,0,0,1-.039.02v-.03c.01,0,.02-.01.03-.019s.02-.02.02-.03h.02v.177Zm.375-.118c0-.01,0-.02-.01-.02s-.01-.01-.02-.01a.01.01,0,0,0-.01.01c-.01,0-.01.01-.01.02s0,.02.01.02a.01.01,0,0,0,.01.01.01.01,0,0,0,.01-.01.034.034,0,0,0,.01-.02Zm-.069.079h.03v.01h.01a.01.01,0,0,0,.01-.01c.01,0,.01-.02.01-.04-.01.01-.02.02-.03.02s-.03-.01-.03-.02-.01-.02-.01-.039,0-.03.01-.039a.051.051,0,0,1,.04-.02.076.076,0,0,1,.04.02.132.132,0,0,1,0,.138.052.052,0,0,1-.04.02.037.037,0,0,1-.03-.01C1640.394,757.262,1640.394,757.242,1640.394,757.232Zm-.049.039h-.03v-.128a.076.076,0,0,1-.039.02v-.03c.01,0,.02-.01.03-.019s.02-.02.02-.03h.03v.177Zm-2.574-2.473.01.03.02-.01-.01.02.02.01-.02.01.01.03-.02-.01-.01.03-.01-.03-.02.01.01-.03-.02-.01.02-.01-.01-.02.02.01Zm-.089-.039a.054.054,0,0,1,.059.039.059.059,0,0,0-.049-.019.069.069,0,1,0,0,.138c.03,0,.03-.01.049-.02a.06.06,0,0,1-.059.03.087.087,0,0,1-.079-.089.1.1,0,0,1,.079-.089Zm.01-.1-.049.059h-.069v.079l-.049.059.049.049v.079h.069l.049.059.049-.059h.069v-.079l.049-.049-.049-.059v-.079h-.069Zm.059.03h.069c.01,0,.01.01.01.02v.079l.049.049v.019l-.049.059V755a.01.01,0,0,1-.01.01h-.069l-.049.059h-.02l-.049-.059h-.069a.01.01,0,0,1-.01-.01v-.079l-.049-.059v-.019l.049-.049v-.079a.035.035,0,0,1,.01-.02h.069l.049-.049c0-.01.01-.01.02,0Zm5,0h-.069c-.01,0-.01.01-.01.02v.079l-.049.049c-.01.01-.01.019,0,.019l.049.059V755c0,.01,0,.01.01.01h.069l.049.059h.02l.049-.059h.069a.01.01,0,0,0,.01-.01v-.079l.05-.059v-.019l-.05-.049v-.079a.035.035,0,0,0-.01-.02h-.069l-.049-.049c0-.01-.01-.01-.02,0Zm.059-.03.049.059h.069v.079l.049.059-.049.049v.079h-.069l-.049.059-.05-.059h-.069v-.079l-.049-.049.049-.059v-.079h.069Zm.01.1a.054.054,0,0,0-.059.039.059.059,0,0,1,.05-.019.069.069,0,0,1,0,.138c-.03,0-.03-.01-.05-.02a.07.07,0,0,0,.059.03.089.089,0,0,0,0-.177Zm-.089.039-.01.03-.02-.01.01.02-.02.01.02.01-.01.03.02-.01.01.03.01-.03.02.01-.01-.03.02-.01-.02-.01.01-.02-.02.01Zm-2.643-1.635v-.118a.59.59,0,0,1,.079.039c.01,0,.02.01.03.01a.33.33,0,0,1-.059.03c-.01,0-.02.01-.03.02s-.02.01-.03.02Zm.276-.128c0,.039.01.1.01.148-.02-.02-.04-.029-.059-.049s-.059-.03-.069-.039.02-.01.03-.02l.079-.039c.01,0,.01,0,.02-.01Zm.04.325v-.138a.3.3,0,0,1,.069.049c.01.01.02.01.02.02v.01c-.01,0-.01.01-.02.01Zm-.345-.148v.168l-.108-.079a.01.01,0,0,1,.01-.01l.1-.069Zm.02.148V753.2c0-.01,0-.01.03-.02a.138.138,0,0,1,.04-.029.548.548,0,0,0,.079-.05c.01,0,.1.059.118.069s.04.02.04.03v.177c0,.01-.01.01-.02.01l-.059.039a.336.336,0,0,1-.079.049.052.052,0,0,0-.039-.02l-.1-.059v-.029Zm.483-.4.079-.01c.03,0,.1,0,.1.039,0,.02,0,.03-.01.039l-.03.059-.04.049a.746.746,0,0,0-.079.089c-.02.019-.039.029-.059.049a.691.691,0,0,0-.089-.069.01.01,0,0,0-.01-.01c0-.059-.01-.148-.01-.177a.478.478,0,0,1,.108-.039l.01.01c.02,0,.04-.01.04-.03Zm-.256.3a.074.074,0,0,0-.069-.049.08.08,0,0,0-.079.089.085.085,0,0,0,.03.059.076.076,0,0,0,.05.02.083.083,0,0,0,.069-.039.1.1,0,0,0,.01-.079Zm-.473-.079c0-.019,0-.03-.01-.039a.037.037,0,0,0-.03-.01c0-.01,0-.01-.01-.02-.02-.029-.069-.1-.059-.138s.128-.029.168-.02a.566.566,0,0,1,.168.059c.01,0,.02.01.03.01s-.01.118-.01.148l-.118.089-.01.01c-.01-.01-.089-.079-.1-.089Zm.286-.355h0c0,.01-.01.03-.01.039s-.01.079-.02.148l-.069-.029a.451.451,0,0,0-.069-.03.283.283,0,0,0-.237,0c-.069.059.049.2.049.2,0,.02,0,.03.01.04s.01.01.03.01l.069.069a2.528,2.528,0,0,0,.355.256,1.5,1.5,0,0,0,.513-.473c.01-.02.01-.02.01-.03v-.03a.055.055,0,0,0-.03-.049.324.324,0,0,0-.168,0c-.01-.01-.02-.02-.03-.01s-.02.02-.02.02-.1.039-.109.039a.866.866,0,0,0-.069-.276c-.01-.02-.02-.03-.03-.049a.084.084,0,0,0-.049-.03.133.133,0,0,0-.049.03.553.553,0,0,0-.049.079h0c-.02,0-.03.02-.03.039s.01.02.01.03Zm.01,0h0c0,.02-.01.03-.01.039l-.03.158c.01,0,.03.01.04.01s.02.01.039.02c.049.02.04.03.059.02s.049-.02.069-.03l.069-.03a.779.779,0,0,0-.079-.305c-.049-.089-.1-.02-.128.059h0c.01,0,.01.02.01.029a.077.077,0,0,1-.039.04h0Zm.286,4.139a.2.2,0,0,0,.079.01h.079a.3.3,0,0,0,.276-.315v-.512a.05.05,0,1,0-.1,0v.512a.177.177,0,0,1-.168.187h-.02a.3.3,0,0,1-.148.109Zm-.1-.808c0-.03,0-.059-.01-.059h-.039a.055.055,0,0,0-.049.059v.512a.257.257,0,0,0,.049.168.263.263,0,0,0,.118-.03.179.179,0,0,1-.059-.138v-.512Zm-.552.276v-.335h-.049a.073.073,0,0,0-.059.059v.424h0v.089a.312.312,0,0,0,.089.227.284.284,0,0,0,.207.089h.306a.37.37,0,0,0,.286-.128.48.48,0,0,0,0-.631.372.372,0,0,0-.207-.118v.118a.273.273,0,0,1,.128.089.333.333,0,0,1,0,.453.3.3,0,0,1-.207.1h-.326a.2.2,0,0,1-.158-.177v-.256Zm.069-.217c.059,0,.138.049.138.109a.108.108,0,0,1-.1.108h-.079v.118h.118a.146.146,0,0,1,.138.158.207.207,0,0,1-.049.128h.128a.2.2,0,0,0,.039-.128.267.267,0,0,0-.128-.236.237.237,0,0,0,.039-.148.247.247,0,0,0-.246-.227h-.04v.118h.04Zm-1.9-.148.049-.049h-.069l.02.049Zm-.039.1-.02-.039.029-.03-.029-.069h-.04l-.01-.03.187-.01.01.039-.128.148Zm-.1-.522-.04.01.01.03c0,.01.01.02.01.03l.01.01h.01a.01.01,0,0,0,.01-.01v-.039Zm.069-.02-.04.01.01.02a.036.036,0,0,0,.01.03.01.01,0,0,0,.01.01h.01l.01-.01v-.01a.077.077,0,0,0-.01-.03l-.01-.02Zm.02-.049.02.079c0,.01.01.02.01.03v.02c0,.01-.01.01-.01.02a.034.034,0,0,1-.02.01h-.02c-.01,0-.01-.01-.02-.02a.036.036,0,0,1-.01.029l-.02.02h-.02a.035.035,0,0,1-.03-.03.133.133,0,0,0-.01-.049l-.02-.059.168-.059Zm.464.985.02.03-.069.069-.02.02a.034.034,0,0,1-.01.02c0,.01,0,.01.01.02s.01.01.02.01h.02l.02-.02.069-.069.02.029-.069.069c-.01.01-.03.03-.04.03a.034.034,0,0,1-.02.01c-.01,0-.01,0-.02-.01s-.02-.01-.03-.02-.01-.03-.02-.04v-.03c0-.01,0-.01.01-.02s.01-.02.03-.039l.069-.069Zm-.345-.2.148-.1.02.03-.069.049.109.02.03.04-.1-.02-.049.128-.03-.039.039-.089-.039-.01-.04.03-.02-.03Zm4.793-.591-.069-.02-.119.03.01-.039.079-.02-.049-.069.01-.039.079.1.069.02-.01.039Zm-.128.345-.128-.069-.02.049-.03-.01.059-.138.03.01-.02.049.138.069-.01.03Zm-.651.778.02-.02c.01-.01.02-.02.02-.03v-.01a.01.01,0,0,0-.01-.01.01.01,0,0,1-.01-.01h-.01l-.02.02-.02.02.03.039Zm.039.108-.118-.138.049-.059.03-.03h.03c.01,0,.02.01.029.01a.036.036,0,0,1,.01.029.058.058,0,0,1-.01.039h.02a.075.075,0,0,1,.04.01l.04.01-.03.03-.04-.01a.075.075,0,0,0-.03-.01h-.01l-.01.01h0l.049.059-.03.02Zm-.276.236-.1-.157.109-.079.02.03-.079.059.02.039.069-.059.02.03-.069.059.03.039.079-.059.02.03-.108.079Zm.74-.837-.148-.1.02-.03.148.1Zm-.256.276.02-.029c.01,0,.02.01.03,0s.02,0,.02-.01.01-.02.01-.03,0-.01-.01-.02l-.01-.01c-.01,0-.01,0-.02.01l-.02.02a.061.061,0,0,1-.079.01.035.035,0,0,1-.01-.02v-.03c0-.01.01-.02.02-.03a.053.053,0,0,1,.039-.03.059.059,0,0,1,.04.01l-.02.029a.03.03,0,0,0-.02-.01c-.01,0-.01.01-.02.02s-.01.01-.01.02v.01s.01.01.01,0,.01-.01.03-.02.02-.02.03-.02h.03a.035.035,0,0,1,.02.01c.01,0,.01.01.02.02v.03a.074.074,0,0,1-.02.039c-.01.01-.03.029-.04.029a.108.108,0,0,1-.049-.01Zm-.74.739-.138-.138.03-.019.1.1-.03-.148.03-.02.03.2-.03.02Zm-.276.138-.069-.177.029-.01.069.177Zm-.345.128-.049-.187.029-.01.109.1-.03-.128.03-.01.049.177-.03.01-.1-.1.03.118-.03.01Zm-.385-.128h.03l.01.1v.03c0,.01.01.01.01.02h.02c.01,0,.01,0,.02-.01a.01.01,0,0,1,.01-.01v-.03l-.01-.108h.04l.01.1v.069l-.02.02c-.01,0-.01.01-.03.01h-.04c-.01,0-.02-.01-.03-.01a.034.034,0,0,1-.01-.02.2.2,0,0,1-.01-.049l-.01-.1Zm-.6.177.02-.187.128.02-.01.029-.089-.01v.039l.089.01v.029l-.089-.01-.01.049.1.01v.03l-.138-.02Zm-.3-.059.03-.158-.049-.01.01-.03.138.03-.01.03-.049-.02-.03.158-.03-.01Zm-.256-.168v-.079l-.039.059Zm.04.1-.04-.02v-.039l-.069-.03-.03.03-.03-.01.128-.148.03.01v.207Zm-.4-.2.069-.138-.04-.03.01-.03.119.069-.01.03-.039-.03-.069.138-.03-.02Zm-.306-.286.03.02v.03c0,.01,0,.02.01.02a.036.036,0,0,0,.03.01.01.01,0,0,0,.01-.01v-.02a.142.142,0,0,0-.02-.03.075.075,0,0,1-.02-.039.06.06,0,0,1,.01-.04c0-.01.01-.01.02-.01h.03c.01,0,.02.01.03.01a.054.054,0,0,1,.03.04.1.1,0,0,1-.01.049l-.03-.02V757.1c0-.01,0-.01-.01-.02a.031.031,0,0,0-.02-.01.01.01,0,0,0-.01.01v.01a.13.13,0,0,0,.02.029.075.075,0,0,1,.02.04c0,.01.01.02.01.029a.036.036,0,0,1-.01.03c-.01.01-.02.02-.03.02h-.03c-.01,0-.02-.01-.029-.02s-.03-.03-.03-.039a.075.075,0,0,1,.01-.049Zm-.671-3.468-.1-.01.069.079Zm.128-.04-.03.049-.059-.01-.04.1.04.049-.02.049-.178-.217.02-.049.276.02Zm-.3.453.069.02.01-.049a.074.074,0,0,0,.01-.039v-.02c0-.01-.01-.01-.02-.01h-.02c-.01,0-.01,0-.02.01a.407.407,0,0,0-.02.049l-.01.039Zm-.1-.039.059.02.01-.029a.074.074,0,0,0,.01-.039v-.02c0-.01-.01-.01-.02-.01h-.02l-.01.01c0,.01-.01.02-.02.049l-.01.029Zm-.059.039.03-.1c.01-.02.01-.039.02-.049a.021.021,0,0,1,.02-.02c.01-.01.01-.01.02-.01h.03c.01,0,.02.01.03.02a.037.037,0,0,1,.01.03l.03-.03c.01-.01.03,0,.04,0s.02.01.03.02.01.02.02.03v.039a.377.377,0,0,1-.02.059l-.03.089-.237-.089Zm.483-.532-.207-.148.03-.049.1.069-.039-.158.039-.059.03.148h.178l-.04.059-.138-.01.01.059.059.039-.03.049Zm.177-.276-.2-.168.03-.039.2.167-.03.049Zm.138-.493.109.138.03-.03.02-.02c0-.01.01-.01.01-.02v-.03a.053.053,0,0,0-.03-.039.134.134,0,0,0-.04-.03c-.01-.01-.01-.01-.02-.01a.036.036,0,0,0-.03.01c-.01,0-.02.01-.03.03l-.02.01Zm-.069,0,.069-.069c.01-.01.03-.02.04-.03s.03-.01.039-.01a.165.165,0,0,1,.049.02.078.078,0,0,1,.04.039c.02.02.03.03.03.049a.124.124,0,0,1,.01.059.074.074,0,0,1-.01.039.138.138,0,0,0-.03.039l-.069.069-.168-.207Zm1.558-.5-.02-.227-.079.01v-.049l.2-.03.01.049-.069.01.02.227h-.049Zm-.227-.079-.118.03c.01.02.02.039.03.039a.06.06,0,0,0,.039.01c.01,0,.03-.01.03-.02s.01-.039.01-.059Zm.049-.03a.207.207,0,0,1-.02.138.07.07,0,0,1-.059.029h-.069a.124.124,0,0,1-.069-.1v-.03l.168-.039a.22.22,0,0,0-.03-.049.075.075,0,0,0-.049-.01.066.066,0,0,0-.04.059h-.049a.144.144,0,0,1,.02-.069c.01-.02.04-.03.059-.039a.114.114,0,0,1,.1.02.189.189,0,0,1,.049.089Zm-.434.276-.079-.256.049-.02.069.217.118-.039.01.039Zm-.582,0-.02-.039.039-.03.02.039Zm-.059.039-.02-.039.03-.02.02.039-.039.03Zm.069.138a.12.12,0,0,0,.049.049.124.124,0,0,0,.059-.01.222.222,0,0,0,.03-.049.106.106,0,0,0-.02-.069.115.115,0,0,0-.049-.049.074.074,0,0,0-.049.01.054.054,0,0,0-.03.049.182.182,0,0,0,.02.069Zm-.049.029a.18.18,0,0,1-.02-.069v-.049a.073.073,0,0,1,.02-.04c0-.01.02-.029.039-.039a.1.1,0,0,1,.089-.02.131.131,0,0,1,.079.069.151.151,0,0,1,.02.109.144.144,0,0,1-.059.089.115.115,0,0,1-.1.02.131.131,0,0,1-.079-.069Zm.414-.108-.2-.2.049-.029.138.148-.03-.207.049-.02.039.286-.049.02Zm2.624.1.03.03a.136.136,0,0,1,.04.03h.02l.01-.01c.01-.01.01-.01.01-.02s0-.01-.01-.02l-.03-.029-.03-.03-.04.059Zm-.375-.079.128-.236.168.1-.02.039-.118-.079-.03.049.108.069-.02.04-.108-.069-.03.059.118.079-.02.039-.168-.108Zm-.2-.108.02-.286.05.02-.02.217.128-.158.049.03-.187.207-.049-.029Zm-.118-.365.01-.049.049.02-.01.039-.04-.02Zm-.089.286.079-.256.049.02-.079.256Zm-.3-.089.059-.266.049.01.059.207.04-.177.049.01-.059.266-.049-.01-.059-.2-.039.177-.04-.01Zm-.286-.305h.049l-.01.148v.049a.042.042,0,0,0,.069.029c.01,0,.01-.01.02-.019v-.049l.01-.157.049.01-.01.138a.553.553,0,0,1-.01.069c0,.01-.01.02-.02.03s-.02.02-.03.02a.075.075,0,0,1-.049.01.059.059,0,0,1-.049-.02c-.01,0-.02-.01-.03-.02a.037.037,0,0,1-.01-.03V752.1l.01-.148Zm1.884.985.04-.03.029.039-.039.03Zm-.365-.108.04.03a.059.059,0,0,0-.01.04.075.075,0,0,0,.02.039c.01.01.02.02.029.02a.036.036,0,0,0,.03-.01c.01,0,.01-.01.01-.02v-.02c0-.01-.01-.02-.02-.039a.1.1,0,0,1,0-.118c.01-.01.02-.01.03-.02h.039c.01,0,.03.02.04.03a.156.156,0,0,1,.039.069.107.107,0,0,1-.02.069l-.04-.04a.037.037,0,0,0,.01-.03c0-.01-.01-.02-.01-.03s-.02-.01-.03-.02-.01,0-.01.01a.01.01,0,0,0-.01.01c0,.01.01.02.02.049l.03.059v.039c0,.01-.01.02-.02.04a.077.077,0,0,1-.039.02h-.05c-.01,0-.029-.02-.039-.03a.126.126,0,0,1-.04-.069.093.093,0,0,1,.02-.069Zm-.286-.138.158-.217.089.069c.02.01.03.029.039.039s.01.019.01.039,0,.03-.01.039a.053.053,0,0,1-.039.03c-.01,0-.04,0-.049-.01,0,.01.01.02.01.029v.118l-.049-.039v-.118a.031.031,0,0,0-.01-.02l-.02-.02-.01-.01-.059.089-.039-.029Zm.572.621.168-.128-.04-.069.04-.03.119.177-.04.03-.04-.069-.168.138-.03-.05Zm-.128-.187.187-.177.03.04-.2.177-.03-.039Zm.256.375.227-.128.079.177-.039.02-.059-.128-.049.03.059.118-.04.02-.059-.128-.059.03.059.138-.039.02-.089-.187Zm.148.335.2-.079-.03-.079.039-.02.069.2-.04.02-.029-.079-.2.089-.02-.049Zm.069.217.247-.079.01.049-.246.069-.01-.049Zm.266-.079.039-.01.02.049-.049.01Zm-.957-.9a2.219,2.219,0,0,0-1.618-.729,2.183,2.183,0,0,0-1.617.729,2.629,2.629,0,0,0,0,3.508,2.159,2.159,0,0,0,3.235,0,2.628,2.628,0,0,0,0-3.508Zm-1.618-.769a2.257,2.257,0,0,1,1.647.739,2.678,2.678,0,0,1,0,3.567,2.205,2.205,0,0,1-3.294,0,2.678,2.678,0,0,1,0-3.567A2.241,2.241,0,0,1,1640.266,752.315Zm0-.621a3.154,3.154,0,1,1-2.89,3.143A3.025,3.025,0,0,1,1640.266,751.694Zm0,.089a3.065,3.065,0,1,1-2.811,3.054A2.944,2.944,0,0,1,1640.266,751.783Zm0-.187a3.253,3.253,0,1,1-2.978,3.242A3.115,3.115,0,0,1,1640.266,751.6Zm0,.03a3.224,3.224,0,1,1-2.949,3.212A3.09,3.09,0,0,1,1640.266,751.626Zm-.03,2.079a2.212,2.212,0,0,0-1.292-.492l.04-.03-.079.03h0v.049a2.671,2.671,0,0,1,1.321.443v.039a3,3,0,0,0-1.4-.384v-.049h.01l.069-.03-.04.03a2.69,2.69,0,0,1,1.361.444v-.069a2.1,2.1,0,0,1,1.243-.5v-.049h0l-.542-.236.454.246a2.031,2.031,0,0,0-1.134.532l-.01.01v-.059h-.01v.059a2.024,2.024,0,0,0-1.183-.542l.493-.246-.543.236v.049a2.055,2.055,0,0,1,1.233.5v.029Zm.01,0a2.279,2.279,0,0,1,1.292-.492l-.04-.03.079.03h0v.049A2.725,2.725,0,0,0,1640.246,753.7Zm1.391-.4-.069-.03.03.03a2.722,2.722,0,0,0-1.361.443,3,3,0,0,1,1.4-.384V753.3h-.01Zm-.128,2.542Zm.01.01Zm-.01.01Zm0,.01h0Zm0,.02Zm.01.01Zm-.03-.069h0v.01a.01.01,0,0,0,.01-.01Zm.02.069h0Zm.01.02Zm.01,0Zm.02,0Zm-.02-.01Zm.01-.01Zm-.01-.01Zm.02-.01h0Zm-.02-.01Zm0-.02Zm0-.01Zm.01,0Zm.01.01Zm.02-.01h0Zm0,.02Zm-.02,0Zm.01.019Zm-.01,0h0Zm.01.02Zm-.01.01Zm.02.01Zm.01-.01Zm-.01,0Zm0-.02Zm0-.02Zm.01-.01Zm-.02.01h0Zm.029.02Zm0,.01h0Zm0,.02Zm.059.01Zm-.049-.02Zm.01.02Zm.02-.02Zm0,.01Zm-.01-.01h0Zm0-.02Zm-.02,0Zm.01-.02h0Zm-.01,0h0v.01l.01-.01Zm0-.02h0Zm-.01-.01h0Zm.02,0Zm-.01.01Zm.02,0Zm0,.01Zm.02,0h-.01a.01.01,0,0,0,.01.01v-.01Zm0,.01h0Zm.01,0Zm0,.02h0Zm.02.01Zm-2.673-.089Zm-.01.01h0Zm.01.01h0Zm0,.01Zm0,.02Zm-.01.01h0Zm.03-.069h.01a.01.01,0,0,1-.01.01v-.01Zm-.01.069Zm-.01.02Zm-.02,0h0Zm-.02,0Zm.02-.01Zm-.01-.01h0Zm.01-.01Zm-.02-.01Zm.02-.01h0Zm-.01-.019h0Zm.01-.01h0Zm-.01,0h0Zm-.01.01Zm-.01-.01Zm0,.02Zm.02,0Zm-.01.02Zm.01,0Zm-.01.02Zm.01.01Zm-.02.01Zm-.01-.01h0Zm.02,0Zm0-.019Zm-.01-.02h0Zm0-.01Zm.02.01Zm-.029.02Zm0,.01Zm0,.02Zm-.059.01h0Zm.049-.02h0Zm-.01.02Zm-.02-.02Zm0,.01h0Zm.02-.01Zm0-.019h0Zm.02,0Zm-.01-.02h0Zm.01,0h.01a.01.01,0,0,1-.01.01v-.01Zm0-.019Zm.01-.01Zm-.03,0Zm.01.01Zm-.02,0Zm0,.01Zm-.02,0h.01a.01.01,0,0,1-.01.01v-.01Zm0,.01Zm-.02,0Zm0,.02Zm-.02.01h0Zm1.292-.749h.118v-.029h-.118Zm-.168,0h.1v-.029h-.1Zm-.128,0h.109v-.029h-.109Zm-.207,0h.089v-.029h-.089Zm-1.026.5v.059h.03v-.059Zm.03-.01v-.089h-.03v.079h.03Zm0-.1v-.059h-.03v.059Zm-.385.02v-.059h-.03v.069h.01Zm-.01.059v-.03h-.01v-.01h0v.069l-.01-.019Zm1.765.109h0Zm0,.019h0v-.01Zm0,.02h0Zm-.434-.03v-.02h.02v.02Zm-.03,0v-.02h.02v.02Zm-.03,0v-.02h.02v.02Zm-.03,0v-.02h.03v.02h-.02Zm-.03,0v-.02h.02v.02h-.03Zm-.03,0v-.02h.03v.02Zm-.03,0v-.02h.03v.02Zm-.03,0v-.02h.02v.02Zm-.03,0v-.02h.02v.02h-.03Zm-.03,0v-.02h.02v.02Zm-.03,0v-.02h.03v.02Zm-.03,0v-.02h.02v.02Zm-.03,0v-.02h.03v.02Zm-.029,0v-.02h.029v.02Zm-.03,0v-.02h.03v.02Zm-.03,0v-.02h.02v.029h-.03Zm-.02.02v-.02l.02-.02v.02Zm-.03.03v-.02l.02-.02v.02Zm-.02.03v-.02l.02-.02v.02Zm-.02.02v-.02l.02-.02v.02l-.02.01Zm.543-.089v-.019h.02v.019h-.029Zm-.03,0v-.019h.02v.019Zm-.03,0v-.019h.02v.019Zm-.029,0v-.019h.02v.019Zm-.03,0v-.019h.03v.019Zm-.03,0v-.019h.03v.019Zm-.03,0v-.019h.03v.019h-.02Zm-.03,0v-.019h.02v.019Zm-.03,0v-.019h.03v.019Zm-.03,0v-.019h.02v.019Zm-.03,0v-.019h.02v.019Zm-.03,0v-.019h.02v.019Zm-.03,0v-.019h.03v.019Zm-.03,0v-.019h.03v.019h-.02Zm-.04,0v-.019h.03v.019Zm-.03,0v-.019h.03v.019Zm-.02.02v-.01l.02-.02v.01Zm-.03.03v-.02l.02-.019v.019Zm-.02.03v-.02l.02-.02v.02Zm-.02.02v-.02l.02-.02v.02Zm.542-.1v-.01h.03v.01Zm-.03,0v-.01h.02v.01Zm-.03,0v-.01h.02v.01Zm-.03,0v-.01h.02v.01Zm-.03,0v-.01h.03v.01Zm-.03,0v-.01h.03v.01h-.02Zm-.03,0v-.01h.02v.01h-.03Zm-.03,0v-.01h.02v.01Zm-.03,0v-.01h.03v.01Zm-.03,0v-.01h.02v.01Zm-.03,0v-.01h.03v.01Zm-.03,0v-.01h.02v.01Zm-.03,0v-.01h.03v.01h-.02Zm-.03,0v-.01h.02v.01h-.03Zm-.03,0v-.01h.03v.01Zm-.03,0v-.01h.03v.01Zm.493-.1h-.01l-.474.02-.1.1v.1h0v-.03l.02-.02v.02h0v-.02l.02-.02v.02h0v-.029l.02-.02v.02h0v-.03l.02-.02v.02h0v.01l.493-.02v-.01h0v-.079h.01v-.01Zm.483-.266h.03v.276h-.03Zm.03,0h.01v.276h-.01Zm.079.1h.049v.168h-.049Zm-.059-.1h.109v.089h-.109Zm0,.1h.049v.168h-.049Zm-.118-.157h.04v.394h-.04Zm-.079.167h.059v.167h-.059Zm0-.01h.059v-.089h-.059Zm-.168-.108h0v.3h0Zm-.02,0h.02v.3h-.02Zm-.039,0h.03v.3h-.03Zm-.04-.03h.01v.385h-.01Zm-.868.522h0l.1-.1.138-.02-.02.03v.1l-.01.01h-.01l.01-.01v-.03l-.01.01Zm-.01,0h-.03l.119-.118h.01l-.1.109Zm-.049.01v.01l.247-.01.01-.01v-.01C1638.943,755.843,1638.864,755.843,1638.775,755.853Zm.937-.719h.532a.108.108,0,0,0-.02.059c0,.02,0,.039.02.049h-.522v-.108Zm.01.01h.513a.127.127,0,0,0,0,.1h-.513ZM1638.6,753.9h-.03v-.108h.03Zm.345.02h-.03v-.1h.03Zm.345.01h-.02v-.1h.02Zm.345.01h-.02v-.1h.02Zm.345.01h-.02v-.1h.02Zm-.286,1.2h-.069v.1h.069Zm.01-.01h-.079v.108h.079Zm.01-.01h-.1v.128h.1Zm-.276.039.109-.02v.089l-.109.01Zm-.01-.01.128-.02v.1l-.128.01v-.1Zm0,0,.138-.03v.118l-.138.02v-.1Zm.5.315h.059v.167h-.059Zm-.069-.108H1640v.089h-.138Zm0,.108h.059v.167h-.059Zm-.177.236v-.394l.049-.01v.394Zm-.039-.276v-.049h-.04v.049h.04Zm0,.1v-.079h-.03v.079h.039Zm0,.01h-.03v.059h.039v-.059Zm-.089,0h0v.059h.039v-.059h-.03Zm0-.1h0v.079h.03v-.079h-.04Zm0-.01h.039v-.049h-.039Zm-.158,0v-.049h-.04v.049h.01Zm0,.1v-.079h-.02v.079h.01Zm0,.01h-.02v.059h.04v-.059Zm-.148-.108v-.059h-.03v.049h.03Zm-.03.108v.059h.03v-.059Zm.03-.1h-.02v.079h.03v-.079Zm-.2-.01v-.059h-.04v.059h.02Zm0,.1v-.089h-.02v.079h.02Zm0,.01h-.02v.059h.04v-.059Zm-.138-.108h0v-.059h-.039v.059h.03Zm-.01.1h0v-.079h-.03v.079Zm.01.01h-.03v.059h.04v-.059Zm-.167-.1v-.059h-.03v.059Zm0,.1v-.079h-.03v.089h.03Zm-.03.01v.059h.03v-.059Zm-.128-.109v-.059h-.039v.059Zm0,.1v-.079h-.039v.089h.039Zm0,.01h-.039v.059h.039Zm-.187-.1V755.4h-.03v.069h0Zm0,.1v-.089h-.02v.089h0Zm0,.01h-.02v.059h.03v-.059Zm.986-.364v-.138h-.049v.138Zm-.128,0v-.138h-.049v.138Zm.02-.138v.138h.04v-.138Zm-.069-.01h.109v-.03h-.109Zm-.158.01v.138h.04v-.138Zm-.01.138v-.138H1639v.148h.04Zm-.109,0v-.148h-.04v.148Zm.01-.148v.148h.04v-.148Zm-.049-.01h.089v-.039h-.089v.03Zm.109,0h.089v-.029H1639Zm.01-.01h.069v-.01h-.069Zm.049.03v.128h.02v-.128Zm-.03.128v-.128H1639v.128Zm-.395-.335v-.128h-.02v.128Zm.089-.128v.128h.02v-.128Zm-.049-.029h.069v-.01h-.069v.02Zm0,.148h.02v-.128h-.02Zm-.089,0v-.128h-.02v.128Zm.049-.148v-.02h-.069v.02Zm-.246.02v.128h.01v-.128Zm-.03-.039v.02h.049v-.01h-.049Zm0,.039v.128h.01v-.128Zm-.04,0h-.02v.128h.02Zm-.049.128v-.128h-.02v.128Zm.049-.168h-.069v.01h.069Zm4.083.168h.02v-.128h-.02Zm-.049-.168v.01h.069v-.01Zm0,.039v.128h.02v-.128Zm-.039,0h-.01v.128h.01Zm0-.039h-.049v.01h.049v-.019Zm-.03.039h-.01v.128h.01Zm-.2.128h.02v-.128h-.02Zm-.049-.148h.079v-.02h-.079Zm0,.148h.02v-.128h-.02ZM1642,754.7v-.02h-.069v.01H1642Zm0,.148v-.128h-.02v.128Zm-.049-.128h-.02v.128h.02Zm-.187.128h.02v-.128h-.02Zm.02-.148v-.01h-.069v.01Zm-.049.029h-.02v.128h.02Zm-.079.128h.02v-.128h-.02Zm-.03-.128h-.02v.128h.02Zm.049-.019v-.01h-.069v.01Zm-.217,0v-.01h-.079v.01Zm-.118,0v-.01h-.079v.01Zm-.059.019h-.02v.118h.02v-.128Zm.03.128h.03v-.128h-.03Zm.089-.128h-.02v.118h.02v-.128Zm.03.128h.03v-.128h-.03Zm-.345-.118v.118h.03v-.118Zm-.059-.039v.01h.079v-.01Zm0,.039v.118h.03v-.118Zm-.069,0v.118h.03v-.118Zm-.049-.039v.01h.079v-.01Zm-.01.029v.138h.04v-.138Zm-.158.01v.118h.03v-.118Zm-.059,0v.118h.03v-.118Zm0-.039v.01h.089v-.01Zm-.128,0v.01h.089v-.01Zm.059.039v.118h.029v-.118Zm-.059,0v.118h.03v-.118Zm-.138,0v.118h.03v-.118Zm-.049-.039v.01h.079v-.01Zm0,.039v.118h.02v-.118Zm-.04,0h-.02v.118h.02Zm0-.039h-.079v.01h.079Zm-.049.039h-.03v.118h.03Zm-.138,0h-.03v.118h.03Zm-.059,0h-.03v.118h.03Zm.059-.039h-.089v.01h.089Zm-.128,0h-.089v.01h.089Zm-.059.039h-.03v.118h.03Zm-.168,0h-.02v.118h.02Zm0-.039h-.079v.01h.079Zm-.049.039h-.02v.118h.02Zm-.069,0h-.03v.118h.03Zm0-.039h-.079v.01h.079Zm-.049.039h-.03v.118h.03Zm-.256-.03h.079v-.01h-.079Zm.059.02v.128h.02v-.118h-.02Zm-.03.128v-.128h-.03v.128Zm-.089-.128v.128h.02v-.118h-.02Zm-.03.128v-.128h-.02v.128Zm-.02-.148h.079v-.01h-.079Zm-.168.02v.128h.02v-.128Zm-.03.128v-.128h-.03v.128Zm-.02-.148h.069v-.01h-.069Zm-.118,0h.069v-.01h-.069Zm.049.03v.128h.02v-.128Zm-.03.128v-.128h-.03v.128Zm3.482.355h.02v-.138h-.02Zm-.049-.177v.02h.069v-.02Zm0,.039v.138h.02v-.138Zm-.04,0h-.01v.138h.01Zm-.227.128h.02v-.128h-.02Zm-.03-.128h-.02v.128h.02Zm-.02-.029h.069v-.02h-.069v.01Zm-.039-.01h-.059v.02h.059v-.01Zm-.04.039h-.02v.128h.02Zm.04,0H1642v.128h.01Zm-.237.128h.02v-.128h-.02Zm-.03-.128h-.02v.128h.02Zm.049-.029v-.01h-.069v.01Zm-.128.158h.02v-.128h-.02Zm.02-.158v-.01h-.069v.01Zm-.049.029h-.02v.128h.02Zm-.187.128h.03v-.128h-.03Zm.03-.157v-.01h-.089v.01Zm-.059.029h-.02v.128h.02Zm-.1.118h.03v-.128h-.03Zm-.049-.069v.069h.02v-.128h-.02v.02h.01v.019l-.01.01Zm0-.089v.01h.079v-.01Zm-.276.01v-.01h-.069v.01Zm-.207,0v-.01h-.089v.01Zm-.128,0v-.01h-.079v.01Zm-.168,0v-.01h-.1v.01Zm-.247,0h.1v-.01h-.1Zm-.168,0h.079v-.01h-.079Zm-.128,0h.089v-.01h-.089Zm-.207,0h.069v-.01h-.069Zm-.276.079-.01-.01v-.02h.01v-.02h-.01v.128h.01v-.069Zm0-.089h-.079v.01h.079Zm-.049.168v-.128h-.03v.128Zm-.089-.118v.128h.02v-.128Zm-.059-.03h.089v-.01h-.089Zm.03.158v-.128h-.03v.128Zm-.3-.128v.128h.02v-.128Zm-.049-.03h.069v-.01h-.069Zm.02.158v-.128h-.02v.128Zm-.2-.128v.128h.02v-.128Zm-.04-.039v.01h.059v-.02h-.059Zm0,.039v.128h.01v-.128Zm-.059,0v.128h.02v-.128Zm.02-.03v-.01h-.069v.02h.069Zm-.05.158v-.128h-.02v.128Zm-.227-.128v.138h.01v-.138Zm-.04-.039h-.069v.02h.069Zm0,.039h-.02v.138h.02Zm-.049.138v-.138h-.02v.138Zm1.371.187v-.029h-.02v.029h.01Zm0,.1v-.059h-.01v.059h.01Zm0,.03h-.01v.039h.02v-.039Zm-.069,0v.039h.02v-.039Zm0-.1v.059h.02v-.059Zm0-.03h.02v-.029h-.02Zm-.148-.029h0v.029h0Zm0,.069h0v.059h0Zm0,.1h0v.039h0Zm-.04,0h-.01v.039h.01Zm0-.03v-.059h-.01v.059h.01Zm-.01-.1h.01V755.4h-.01v.029Zm-.069,0V755.4h-.02v.029h.01Zm0,.1v-.059h-.02v.059h.01Zm0,.03h-.02v.039h.02Zm-.059,0h-.02v.039h.01v-.039Zm0-.039v-.059h-.02v.059h.01Zm0-.1v-.029h-.01v.029h.01Zm-.2.01v-.039h-.02v.039Zm0,.089v-.059h-.02v.059h.02Zm0,.039h-.02v.039h.02Zm-.089,0v.039h.01v-.039Zm0-.128h.01V755.4h-.01Zm0,.029v.059h.01v-.059Zm-.04-.029v-.039h-.02v.039h.02Zm0,.1v-.059h-.03v.059h.02Zm0,.03h-.01v.039h.02v-.039Zm-.335-.108v-.039h-.01v.039Zm.05,0h.01v-.039h-.01Zm-.05.1v-.059h-.01v.059Zm.05-.059v.059h.01v-.059Zm0,.1v.039h.01v-.039Zm-.05,0h-.01v.039h.01Zm-.187.01h-.01v.039h.01Zm0-.03v-.059h-.01v.059h0Zm0-.1v-.039h-.01v.039h0Zm-.079,0v-.039h-.01v.039h.01Zm.424-.02v-.03h-.01v.039h.01Zm-.049,0v-.03h-.01v.03Zm.049.1v-.059h-.01v.059Zm-.049,0v-.059h-.01v.059Zm-.01.03v.039h.01v-.039Zm.049,0v.03h.01v-.03Zm2.692-.059h.01v-.059h-.02v.059Zm-.326.03h-.02v.039h.02Zm-.069,0v.039h.01v-.039h-.01Zm.069-.128v-.029h-.02v.029Zm-.069,0h0v-.029h-.01v.029Zm0,.1h0v-.059h-.01v.059Zm.069-.059h-.02v.059h.02Zm.256.069h.02v-.059h-.02Zm.059.039v.04h.01v-.04Zm-.059,0v.04h.02v-.04Zm-.079,0v.04h.02v-.04h-.02Zm-.04,0v.04h0v-.04Zm.04-.029h.01v-.059h-.02v.059Zm-.04,0h0v-.059h0Zm0-.1h0v-.03h0Zm.049,0h0v-.03h-.02v.03h.01Zm.069,0h.02v-.03h-.02Zm.059,0h.01v-.03h-.01Zm.927.039h0v-.039h-.01v.039Zm-.079,0h0v-.039h-.01v.039Zm0,.128v.039h.01v-.039Zm0-.03h0v-.059h-.01v.059Zm-.651,0v.039h.02v-.039h-.02Zm.089,0h-.01v.039h.01Zm.049,0v.039h.02v-.039h-.01Zm0-.03h.03v-.059h-.03Zm-.049-.069h-.01v.059h.01Zm-.089.059h.02v-.059h-.02Zm0-.089h.02v-.039h-.02Zm.089,0v-.03h-.01v.03Zm.049,0h.02v-.039h-.02Zm.187.01h.01v-.039H1642Zm.049-.03h-.01v.03h.01Zm0,.069h-.01v.059h.01Zm-.049.059h.01V755.5H1642Zm.01.039H1642v.029h.01Zm.04,0h-.01v.039h.01Zm.089.01v.039h.02v-.039Zm-.039,0h-.01v.039h.01Zm0-.1h-.01v.059h.01Zm0-.03v-.039h-.01v.039Zm.039,0h.02v-.039h-.02Zm0,.1h.02v-.059h-.02Zm-3.373-.463v.148h.03v-.148Zm-.119.148v-.148h-.039v.148Zm-.2-.138v.138h.01v.01h-.02v-.148h.02v.01h-.01Zm-.128.148v-.148h-.039v.148Zm.434-.5v.138h.04v-.138Zm-.118.138v-.138h-.04v.138Zm.453-.138v.148h.04v-.138h-.04Zm-.01.148v-.148h-.039v.148Zm-.108,0v-.148h-.039v.148Zm.01-.148v.148h.04v-.138h-.04Zm-.049-.01h.089v-.03h-.089Zm.108,0h.089v-.03h-.089Zm.4.01v.138h.04v-.138Zm-.01.138v-.138h-.049v.138Zm-.118,0v-.138h-.049v.138Zm.01-.138v.138h.04v-.138Zm-.059-.01h.1v-.03h-.1Zm.118,0h.1v-.03h-.1Zm.4.01h.04v.138h-.04v-.138Zm-.177,0h.04v.138h-.05v-.138h0Zm.532,0h.04v.138h-.04v-.138Zm-.059-.039h.1v.039h-.1v-.039Zm0,.039h.039v.138h-.039v-.138Zm-.128-.039h.1v.039h-.108v-.039h0Zm.1.049h-.03v.128h.03Zm-.04-.01h.04v.138h-.04v-.138Zm-.059,0H1640v.138h-.049v-.138h0Zm.315-.039h.1v.039h-.1v-.039Zm.059.039h.03v.138h-.04v-.138h0Zm-.059,0h.049v.138h-.049v-.138Zm-.138-.453v.049h.04v-.049Zm-.118,0v.039h.049v-.049h-.049Zm-.059.039h.049v-.039h-.049Zm-.473,0v-.049h-.02v.039h0Zm-.02.148v.039h.02V754.5h0Zm0-.02h0v-.108h0Zm-.059.02h0v.039h.049V754.5h-.039Zm0-.128h0v.118h.03v-.109h-.04Zm0-.02h.039v-.039h-.049v.039Zm-.02,0h0v-.049h-.049v.049h.039Zm0,.138h0v-.118h-.04v.108h.049Zm0,.01h-.03v.039h.049V754.5Zm-.069-.148h0v-.049h-.049v.049Zm0,.128h0v-.108h-.049v.118h.04Zm-.049.02h0v.039h.049V754.5h-.039Zm-.148,0h0v.039h.01V754.5h-.01Zm0-.128h0v.108h.01v-.108h-.01Zm0-.02h.01v-.049h-.01Zm-.01,0v-.049h-.049v.049h.039Zm0,.128v-.108h-.03v.108h.039Zm0,.02h-.02v.039h.049V754.5h0Zm-.109,0v.039h.049V754.5H1639Zm0-.138v.118h.039v-.108h-.049Zm0-.02h.039V754.3h-.049v.049h0Zm-.02,0V754.3h-.05v.049h.04Zm-.04.128h.02v-.118h-.039v.118h.01Zm.04.02h-.04v.039h.049v-.039h0Zm-.168-.158h0v-.049h-.059v.049h.039Zm0,.128h0v-.119h-.04v.119h.049Zm0,.019h-.049v.039h.049Zm-.128,0v.039h.059v-.039h-.039Zm0-.128v.118h.049v-.118h-.04Zm0-.02h.049v-.049h-.059v.049Zm-.02,0v-.049h-.059v.049h.04Zm0,.138v-.118h-.02v.118h.03Zm0,.01h-.039v.039h.059v-.039h0Zm-.227-.01v.039h.03v-.039Zm0-.138v.118h.03v-.109h-.03Zm0-.02h.03v-.049h-.03v.059Zm-.02,0h0v-.059h-.039v.049h.039Zm0,.128h0v-.118h-.03v.118h.03Zm0,.01h-.039v.039h.039Zm-.109,0v.039h.04v-.039h-.04Zm0-.138v.118h.03v-.118h-.039Zm.04-.01h0v-.049h-.04v.049h.04Zm1.312.039V754.3h-.049v.049h.039Zm0,.128v-.118h-.04v.118h.02Zm0,.02h-.03v.039h.049v-.039h0Zm.059-.148h0V754.3h-.049v.049h.04Zm0,.138h0v-.118h-.049v.118h.04Zm0,.02h-.059v.039h.049V754.5Zm.05-.148h.01v-.049h-.039v.049h.039Zm-.02.128h0v-.118h-.049v.118h.049Zm.03.02h-.049v.039h.04V754.5Zm.049-.148v-.039h-.03v.049h.03Zm0,.128v-.108h-.02v.118h.04Zm0,.02h-.02v.039h.03V754.5h0Zm.306,0v.039h.04V754.5h-.04Zm0-.02h.03v-.108h-.04v.108h0Zm-.02-.128v-.049h-.04v.049h.04Zm0,.128v-.108h-.04v.118h.04Zm0,.02h-.02v.039h.039V754.5h0Zm-.059,0h-.039v.039h.049V754.5h0Zm-.039-.02h.03v-.108H1640v.108Zm-.02,0h0v-.108h-.049v.108h.04Zm0,.02h-.03v.039h.05V754.5Zm.148-.187v.029h.02v-.029Zm-.128,0v.029h.03v-.029Zm-.059.029h.03v-.029h-.03Zm-.552.158v.019h.03v-.029h-.02Zm0-.128v.1h.03v-.1h-.02Zm0-.03h.03v-.029h-.03Zm-.039,0v-.029h-.03v.029h.03Zm0,.128v-.1h-.03v.1h.03Zm0,.03h-.02v.019h.03V754.5Zm-.069-.168h0v-.029h-.03v.029Zm0,.138v-.1h-.03v.1Zm-.03.03v.02h.03v-.02h-.03Zm-.168-.168v-.029h-.03v.029h.03Zm0,.128v-.1h-.03v.1h.02Zm-.03.03v.02h.03v-.02h-.02Zm-.069,0v.02h.039v-.02h-.029Zm0-.128v.1h.03v-.1H1639Zm.039-.039v-.03H1639v.03h.03Zm-.069,0v-.03h-.03v.03h.02Zm-.03.138h.01v-.1h-.02v.1Zm0,.03v.02h.03v-.02h-.02Zm-.138-.168V754.3h-.03v.029h.03Zm0,.128v-.1h-.03v.1h.02Zm0,.039h-.03v.02h.03Zm-.109,0v.03h.04v-.02h-.04Zm0-.128v.1h.04v-.1Zm0-.03h.04v-.029h-.04Zm-.039,0v-.029h-.04v.029h.03Zm0,.128v-.1h-.03v.1h.02Zm-.04.03v.02h.04v-.02h-.03Zm-.177-.01v.02h.02v-.02Zm0-.128v.1h.02v-.1h-.01Zm0-.039h.02v-.039h-.02Zm-.03,0v-.03h-.03v.03h.03Zm0,.138v-.1h-.02v.1h.02Zm0,.039h-.03v.02h.03Zm-.089,0v.02h.03v-.02h-.02Zm0-.128v.1h.02v-.1h-.02Zm.03-.04V754.3h-.03v.039h.02Zm1.3.04v-.03h-.03v.03h.02Zm0,.138v-.1h-.02v.1h.02Zm-.03.04v.02h.03v-.02h-.03Zm.1-.168v-.03h-.03v.03h.03Zm0,.128v-.1h-.03v.1h.02Zm0,.04h-.03v.02h.03Zm.059-.168v-.03h-.03v.03Zm0,.128v-.1h-.02v.1h.01Zm0,.03h-.02v.02h.03v-.02Zm.049-.167v-.03h-.02v.03h.01Zm0,.128v-.1h-.02v.1h.02Zm-.02.03v.02h.02v-.02h-.02Zm.345,0v.02h.02v-.02h-.02Zm0-.039h.02v-.1h-.02v.1Zm-.04-.138v-.029h-.03v.029h.02Zm0,.138v-.1h-.02v.1h.02Zm-.03.03v.03h.03v-.02h-.02Zm-.059,0v.02h.03v-.03h-.03Zm0-.03h.02v-.1h-.03v.1Zm-.03,0v-.1h-.03v.1h.03Zm0,.03h-.02v.02h.03v-.02Zm.345-.2v.049h.049v-.049Zm-.059.049h.049v-.049h-.049Zm.059.148v.039h.049v-.039Zm.049-.128h-.049v.118h.049Zm-.109.128v.039h.049v-.039Zm0-.01h.049v-.118h-.049Zm.069-.168v.03h.03v-.03Zm-.059.03h.03v-.03h-.03Zm.059.168v.019h.03v-.019Zm.03-.138h-.03v.1h.03Zm-.1.138v.019h.03v-.019Zm0-.039h.03v-.1h-.03Zm-1.233.562v-.128h.1v.128Zm-.72-.148v-.148h-.04v.148Zm.108-.148v.148h.03v-.148Zm-.059-.049h-.079v.03h.079v.01h-.03v.148h.03v.01h-.1V754.7h.1Zm.04,0v.01h.059v.03h-.059v.01h.02v.148h-.02v.01h.059v.138h-.059v.01h.059v.01h-.049v.02h.049v.01h-.059v.01h.029v.148h-.029v.02h.059v.148h-.059v.236a.075.075,0,0,0-.02-.039V754.7h.069v.01h-.059Zm-.109-.187h.168v.01l-.2-.01v.039a1.378,1.378,0,0,1,.2.01v.059h-.207v.069h.118v.729h-.049a.728.728,0,0,0-.039-.138h.079v-.01h-.03v-.148h.03v-.01h-.079v-.039h.079v-.01h-.1v.128a2.419,2.419,0,0,1-.04-.473,2.551,2.551,0,0,1,.059-.552c.059,0,.118.01.178.01v.089h0c-.059,0-.109-.01-.168-.01v.266Zm.394.542v-.01h-.1v.2h-.01v.02h.1v-.02h-.03V755.1h.03v-.01h-.079v-.03h.079Zm0-.148h-.1v-.207h.1v.01h-.089v.03h.089v.01h-.03v.138h.03v.02Zm1.016.7h0v-.236h.02v.246h-.148v-.02h.01v-.227h.118v.227Zm.641-.345c0,.01.01.01.02.01h-.71l-.168.02.01-.02.158-.01Zm-.158-.217v-.128h-.108v.128Zm-.483.01h-.089v.03h.089v-.01h-.079v-.01h.079Zm0,.039h-.108v-.039h.108v.03h0Zm0-.177v-.01h0v-.138h0v-.039h.02v.374h-.02v-.049h0v-.128h0Zm0-.2h-.089v.04h.069v.138h.04v.01h-.1v-.2h.1Zm-1.016.946a.366.366,0,0,0-.108.01v-.01h.01v-.246h.1v.01h-.03v.059h.03v.01h-.03v.079h.03v.01h-.03v.059h.03v.01Zm.326-.01h-.119v-.01h.02v-.237h.1v.01h-.02v.059h.02v.02h-.01v.079h.01v.01h-.01v.059h.02v.01Zm.345-.01h-.118v-.01s.01.01.01,0v-.236h.109v.01h-.03v.049h.02v.01h-.02v.079h.02v.01h-.02v.059h.03v.01Zm.128,0v-.01h0v-.315l.069.02v.286h-.01v.01h-.059v-.01Zm-.01-.237v.01h-.02v.049h.01v.01h-.01v.079h.01v.01h-.01v.059h.02v.01h-.079v-.237h.079Zm.01-.167v0Zm0,0h0v.02h0Zm1.144.434h0Zm0,.02h0v-.01Zm0,.02h0Zm.434-.029v-.02h-.02v.02h.03Zm.03,0v-.02h-.02v.02Zm.03,0v-.02h-.02v.02Zm.03,0v-.02h-.02v.02Zm.03,0v-.02h-.03v.02Zm.029,0v-.02h-.029v.02Zm.03,0v-.02h-.02v.02h.03Zm.03,0v-.02h-.03v.02Zm.03,0v-.02h-.02v.02Zm.03,0v-.02h-.02v.02Zm.03,0v-.02h-.02v.02Zm.03,0v-.02h-.02v.02Zm.03,0v-.02h-.03v.02Zm.03,0v-.02h-.02v.02Zm.03,0v-.02h-.03v.02Zm.03,0v-.02h-.03v.03h.03Zm.02.02v-.02l-.02-.02v.02Zm.02.03v-.02l-.02-.02v.02Zm.03.03v-.02l-.02-.02v.02Zm.02.02v-.02l-.01-.02v.02l.01.01Zm-.543-.089v-.02h-.03v.02h.03Zm.03,0v-.02h-.02v.02Zm.03,0v-.02h-.02v.02h.03Zm.03,0v-.02h-.02v.02Zm.03,0v-.02h-.03v.02Zm.03,0v-.02h-.03v.02h.02Zm.03,0v-.02h-.03v.02Zm.03,0v-.02h-.03v.02Zm.03,0v-.02h-.02v.02Zm.03,0v-.02h-.02v.02Zm.03,0v-.02h-.02v.02Zm.03,0v-.02h-.02v.02Zm.03,0v-.02h-.03v.02h.02Zm.03,0v-.02h-.02v.02Zm.03,0v-.02h-.03v.02Zm.03,0v-.02h-.03v.02Zm.02.02v-.01l-.02-.02v.01l.01.02Zm.02.03v-.02l-.02-.02v.02Zm.029.03v-.02l-.02-.019v.019Zm.02.02v-.02l-.01-.02v.02Zm-.542-.1v-.01h-.03v.01Zm.03,0v-.01h-.02v.01Zm.029,0v-.01h-.029v.01Zm.03,0v-.01h-.02v.01Zm.03,0v-.01h-.03v.01h.02Zm.03,0v-.01h-.02v.01Zm.03,0v-.01h-.03v.01Zm.03,0v-.01h-.03v.01Zm.03,0v-.01h-.02v.01h.03Zm.03,0v-.01h-.02v.01Zm.03,0v-.01h-.02v.01Zm.03,0v-.01h-.02v.01Zm.03,0v-.01h-.03v.01Zm.03,0v-.01h-.02v.01Zm.03,0v-.01h-.03v.01Zm.03,0v-.01h-.03v.01Zm-.493-.1h.01l.473.02.1.1v.1h-.01v-.03l-.02-.02v.02h0v-.02l-.02-.02v.02h0v-.029l-.02-.02v.02h0v-.03l-.01-.02v.02h0l.01.01-.493-.02v-.01h0v-.079h-.01v-.01Zm-.483-.266h-.03v.276h.03Zm-.03,0h-.01v.276h.01Zm-.079.1h-.059v.168h.059Zm.059-.1h-.108v.089h.108Zm0,.1h-.049v.168h.049Zm.118-.158h-.039v.394h.039Zm.079.167h-.059v.168h.059Zm0-.01h-.059v-.089h.059Zm.168-.108h0v.3h0Zm.02,0h-.01v.3h.01Zm.04,0h-.03v.3h.03Zm.039-.03h-.01v.384h.01Zm.878.522h0l-.109-.1-.138-.02.02.03v.1l.01.01h0l-.01-.01v-.03l.02.01Zm.01,0h.03l-.118-.118h-.01l.108.108Zm.049.01v.01l-.256-.01v-.02C1641.714,755.824,1641.793,755.824,1641.882,755.833Zm-1.529-.729c-.03,0-.049.03-.049.069s.049.069.059.069h0a.074.074,0,0,0,.059-.069.072.072,0,0,0-.059-.069Zm.01.128a.06.06,0,0,0,0-.118h-.01a.055.055,0,0,0-.049.059A.057.057,0,0,0,1640.363,755.232Zm.582-.118h-.532a.108.108,0,0,1,.02.059.076.076,0,0,1-.02.049h.532Zm-.01.01h-.513c.01.02.02.03.02.049a.088.088,0,0,1-.01.049h.5Zm1.391-1.419c-.572.039-1.243.059-1.953.059h-.02c-.71,0-1.381-.02-1.953-.059,0-.01,0-.01.01-.02h0c.572.039,1.233.059,1.953.069s1.381-.02,1.953-.069h0C1642.316,753.7,1642.325,753.7,1642.325,753.705Zm-.266.168h.03v-.108h-.03Zm-.345.02h.03v-.1h-.03Zm-.345.01h.03v-.1h-.03Zm-.345.01h.03v-.1h-.03Zm-.345.01h.03v-.1h-.03Zm-.335,0h.02v-.1h-.01v.1Zm2.081.089c-.6.029-1.312.049-2.051.049h-.02c-.75,0-1.45-.02-2.061-.049a.649.649,0,0,0,.02-.069c.6.039,1.3.059,2.051.059s1.45-.02,2.051-.059a.637.637,0,0,1,.02.069Zm-.118-.345c-.572.039-1.233.059-1.943.059h-.02c-.71,0-1.371-.02-1.943-.059v-.01c.572.039,1.233.059,1.943.059s1.371-.02,1.943-.059l.01.01Zm-1.341,1.448h.069v.1h-.069Zm0-.01h.079v.109h-.079Zm0-.01h.1v.128h-.1Zm.266.039-.108-.02v.089l.108.01Zm.01-.01-.128-.02v.1l.128.01v-.1Zm.01,0-.148-.029v.118l.148.02v-.1Zm-.5.315h-.059v.167h.059Zm.069-.108h-.138v.089h.138Zm0,.108h-.059v.167h.059Zm.177.236v-.394l-.049-.01v.394Zm.049-.276v-.049h.03v.049h-.01Zm0,.1v-.079h.03v.079h-.01Zm0,.01h.03v.059h-.03Zm.089,0h0v.059h-.039v-.059h.039Zm0-.1h0v.079h-.039v-.079h.039Zm0-.01h-.03v-.049h.04v.049Zm.168,0v-.049h.03v.049h-.01Zm0,.1v-.079h0v.079Zm0,.01h0v.059h-.03v-.059Zm.138-.108v-.059h.03v.049h-.03Zm.03.108v.059h-.03v-.059Zm-.03-.1h.01v.079h-.03v-.079Zm.2-.01v-.059h.039v.059h-.02Zm0,.1v-.089h.01v.079h-.02Zm0,.01h.01v.059h-.039v-.059Zm.138-.108h0v-.059h.039v.059h-.03Zm.01.1h-.01v-.079h.03v.079h-.03Zm-.01.01h.03v.059h-.04v-.059Zm.187-.1v-.059h.03v.059Zm0,.1v-.079h.03v.089h-.03Zm.03.01v.059h-.03v-.059Zm.108-.109v-.059h.03v.059Zm0,.1v-.079h.03v.089h-.03Zm0,.01h.03v.059h-.03Zm.187-.1v-.059h.03v.069h-.01Zm0,.1v-.089h.02v.089h-.01Zm0,.01h.02v.059h-.03v-.059Zm-.986-.365v-.138h.049v.138Zm.128,0v-.138h.049v.138Zm-.01-.138v.138h-.04v-.138Zm.059-.01h-.109v-.03h.109Zm.158.01v.138h-.04v-.138Zm.01.138v-.138h.049v.148h-.049Zm.108,0v-.148h.04v.148Zm-.01-.148v.148h-.04v-.148Zm.059-.01h-.089v-.039h.089V755Zm-.109,0h-.089v-.03h.089Zm.276.01v.148h-.039v-.148Zm.118.148v-.148h.04v.148Zm.2-.138v.138h-.01v.01h.02v-.148h-.02v.01h.01Zm.128.148v-.148h.04v.148Zm-.444-.5v.138h-.039v-.138Zm.128.138v-.138h.039v.138Zm-.454-.138v.148h-.039v-.138h.039Zm.01.148v-.148h.049v.148Zm.119,0v-.148h.039v.148Zm-.01-.148v.148h-.04v-.138h.04Zm.059-.01h-.089v-.03h.089Zm-.108,0h-.1v-.03h.1Zm-.4.01v.138h-.04v-.138Zm.01.138v-.138h.049v.138Zm.118,0v-.138h.049v.138Zm-.01-.138v.138h-.039v-.138Zm.059-.01h-.1v-.03h.1Zm-.118,0h-.1v-.03h.1Zm-.434.02h.03v.118h-.03Zm.207-.01h-.04v.138h.04v-.138Zm-.533,0h-.039v.138h.039v-.138Zm.059-.039h-.1v.039h.109v-.039h0Zm0,.039h-.049v.138h.049v-.138Zm.128-.039h-.1v.039h.1v-.039Zm-.059.039h-.039v.138h.039v-.138Zm.059,0h-.049v.138h.049v-.138Zm-.325-.039h-.1v.039h.1v-.039Zm-.059.039h-.03v.138h.04v-.138h0Zm.059,0h-.039v.138h.049v-.138h0Zm.138-.453v.049h-.04v-.049Zm.128,0v.04h-.049v-.049h.049Zm.059.04h-.049v-.04h.049Zm.473,0v-.049h.01v.039h0Zm.01.148v.039h-.01V754.4h0Zm0-.02h0v-.108h0Zm.069.02h0v.039h-.049V754.4h.039Zm0-.128h0v.118h-.03v-.109h.04Zm0-.02h-.03v-.04h.049v.04Zm.02,0h0v-.049h.049v.049h-.049Zm0,.138h0v-.118h.04v.108h-.049Zm0,.01h.03v.039h-.049V754.4Zm.069-.148h0v-.049h.049v.049Zm0,.128h0v-.108h.049v.118h-.04Zm.039.02h0v.039h-.049V754.4h.049Zm.148,0h0v.039h-.01V754.4h0Zm0-.128h0v.108h0v-.108Zm0-.02h0v-.049h.01v.049Zm.01,0v-.049h.05v.049h-.02Zm0,.128v-.108h.04v.108h-.049Zm0,.02h.01v.039h-.049V754.4h.039Zm.118,0v.039h-.049V754.4h.049Zm0-.138v.118h-.039v-.108h.049Zm0-.02h-.039V754.2h.049v.049h0Zm.02,0V754.2h.049v.049h-.039Zm.04.128h-.03v-.118h.039v.118Zm-.04.02h.049v.039h-.049V754.4Zm.168-.158h0v-.049h.049v.049h-.039Zm0,.128h0v-.118h.03v.118h-.04Zm0,.02h.049v.039h-.049Zm.128,0v.039h-.059v-.039h.039Zm0-.128v.118h-.049v-.118h.04Zm0-.02h-.049v-.049h.059v.049Zm.02,0v-.049h.049v.049h-.049Zm0,.138v-.118h.02v.118h-.04Zm0,.01h.039v.039h-.049v-.039h0Zm.227-.01v.039h-.03v-.039h.03Zm0-.138v.118h-.03v-.108h.03Zm0-.02h-.03v-.049h.03v.059Zm.02,0h0v-.059h.049v.049h-.04Zm0,.128h0v-.118h.03v.118h-.02Zm0,.01h.049v.04h-.049Zm.109,0v.04h-.04v-.04h.04Zm0-.138v.118h-.03v-.118h.039Zm-.04-.01h0v-.049h.04v.049h-.04Zm-1.312.039V754.2h.049v.049h-.049Zm0,.128v-.118h.04v.118h-.01Zm0,.02h.04v.039h-.049V754.4h0Zm-.059-.148h-.01V754.2h.049v.049h-.03Zm0,.138h-.01v-.118h.039v.118h-.03Zm-.01.02h.049v.039h-.049Zm-.059-.148h0v-.049h.04v.049h-.04Zm.03.128h-.01v-.118h.04v.118h-.01Zm-.03.02h.04v.039h-.04Zm-.049-.148v-.04h.03v.049h-.03Zm0,.128v-.108h.03v.118h-.02Zm0,.02h.03v.039h-.03V754.4Zm-.316,0v.039h-.039V754.4h.039Zm0-.02h-.03v-.108h.04v.108h0Zm.02-.128v-.049h.039v.049h-.039Zm0,.128v-.108h.039v.118h-.02Zm0,.02h.02v.039h-.04V754.4h0Zm.069,0h.04v.039h-.049V754.4Zm.04-.02h-.059v-.108h.049v.108Zm.02,0h0v-.108h.049v.108h-.039Zm0,.02h.03v.039h-.049V754.4Zm-.148-.187v.03h-.03v-.03Zm.128,0v.03h-.03v-.03Zm.059.03h-.03v-.03h.03Zm.552.158v.02h-.03V754.4h.01Zm0-.128v.1h-.02v-.1h.01Zm0-.03h-.02v-.029h.03v.029Zm.04,0v-.029h.039v.029h-.03Zm0,.128v-.1h.03v.1h-.03Zm0,.03h.03v.02h-.04v-.02Zm.069-.168h0v-.03h.03v.03Zm0,.138v-.1h.03v.1Zm.03.03v.02h-.03v-.02h.02Zm.168-.167v-.03h.03v.03h-.02Zm0,.128v-.1h.03v.1h-.03Zm.03.03v.02h-.03v-.02h.02Zm.069,0v.02h-.039v-.02h.03Zm0-.128v.1h-.02v-.1h.03Zm-.039-.04v-.03h.039v.03h-.02Zm.069,0v-.03h.03v.03h-.03Zm.03.138h-.02v-.1h.02Zm0,.03v.02h-.03v-.02h.03Zm.138-.167v-.03h.04v.03h-.04Zm0,.128v-.1h.03v.1h-.03Zm0,.039h.03v.02h-.03Zm.108,0v.03h-.039v-.02h.039Zm0-.128v.1h-.03v-.1h.04Zm0-.03h-.03v-.03h.04v.03Zm.04,0v-.03h.039v.03h-.039Zm0,.128v-.1h.03v.1h-.03Zm.039.03v.02h-.039v-.02h.03Zm.168-.01v.02h-.01v-.02Zm0-.128v.1h-.01v-.1Zm0-.039h-.01v-.039h.01Zm.04,0v-.03h.03v.03h-.03Zm0,.138v-.1h.03v.1h-.02Zm0,.039h.03v.02h-.03Zm.089,0v.02h-.03v-.02h.03Zm0-.128v.1h-.02v-.1h.03Zm-.03-.039v-.03h.03v.039h-.02Zm-1.312.039v-.03h.03v.03h-.03Zm0,.138v-.1h.02v.1h-.02Zm.03.04v.02h-.03v-.02h.02Zm-.1-.168v-.03h.03v.03h-.03Zm0,.128v-.1h.03v.1h-.03Zm0,.04h.03v.02h-.03Zm-.059-.168v-.03h.03v.03Zm0,.128v-.1h.02v.1h-.01Zm0,.03h.02v.02h-.03v-.02Zm-.049-.167v-.03h.02v.03h-.01Zm0,.128v-.1h.01v.1Zm.02.03v.02h-.02v-.02h.01Zm-.345,0v.02h-.03v-.02h.02Zm0-.039h-.02v-.1h.029v.1h0Zm.04-.138v-.03h.03v.03h-.02Zm0,.138v-.1h.02v.1h-.02Zm.03.029v.03h-.03v-.02h.03Zm.069,0v.02h-.03v-.03h.03Zm0-.029h-.03v-.1h.03Zm.03,0v-.1h.03v.1h-.03Zm0,.029h.01v.02h-.03v-.02Zm-.345-.2v.049h-.049v-.049Zm.059.049h-.039v-.049h.039Zm-.059.148v.039h-.049v-.039Zm-.049-.128h.049v.118h-.049Zm.108.128v.039h-.039v-.039Zm0-.01h-.039v-.118h.039Zm-.069-.168v.03h-.03v-.03Zm.059.03h-.03v-.03h.03Zm-.059.168v.02h-.03v-.02Zm-.03-.138h.03v.1h-.03Zm.1.138v.02h-.03v-.02Zm0-.039h-.03v-.1h.03Zm1.233.562v-.128h-.1v.128Zm.72-.148v-.148h.03v.148Zm-.108-.148v.148h-.03v-.148Zm.069-.049h.079v.029h-.079v.01h.03v.148h-.03v.01h.089V754.6h-.089Zm-.039,0v.01h-.059v.029h.059v.01h-.02v.148h.02v.01h-.059v.138h.059v.01h-.059v.01h.049V755h-.049v.01h.059v.01h-.03v.148h.03v.02h-.059v.148h.059v.236c0-.01.01-.03.01-.04V754.6h-.069v.01h.059Zm.109-.187h-.168v.01l.2-.01v.039a1.39,1.39,0,0,0-.2.01v.059h.207v.069h-.118v.729h.049c.01-.039.02-.1.03-.138h-.079v-.01h.029v-.148h-.029v-.01h.079v-.039h-.079v-.01h.1v.128a2.4,2.4,0,0,0,.039-.473,2.565,2.565,0,0,0-.059-.552c-.059,0-.119.01-.178.01v.089h0c.059,0,.108-.01.168-.01v.266Zm-.385.542v-.01h.089v.2h.01v.02h-.108v-.02h.03v-.148h-.03V755h.089v-.03Zm0-.148h.1v-.207h-.1v.01h.079v.029h-.079v.01h.03v.138h-.03Zm-1.026.7h0v-.237h-.02v.246h.158v-.02h-.01v-.227h-.118l-.01.227Zm-.631-.345c-.01.01-.01.01-.02.01h.71l.168.02-.01-.02-.158-.01Zm.148-.217v-.128h.109v.128Zm-.2-.493h.128v-.256h-.256v.256Zm0,.029h.138v-.029h-.256v.029h.138Zm0,.118h.128v-.059h-.247v.059h.128Zm.01.345v-.128h.118v-.2h-.247v.2h.108v.128h-.128v-.828h.276v.828Zm.671.01h.089V755h-.089v-.01h.079v-.01h-.079Zm0,.039h.108v-.039h-.108V755h0Zm0-.177v-.01h0v-.138h0v-.039h-.02v.375h.02v-.049h0v-.128h0Zm.01-.2h.089v.039h-.059v.138h-.04v.01h.1v-.2h-.1Zm1.016.946a.365.365,0,0,1,.108.01v-.01h-.01v-.246h-.1v.01h.02v.059h-.02v.01h.02v.079h-.02v.01h.02v.059h-.02v.01Zm-.326-.01h.118v-.01h-.01v-.237h-.1v.01h.02v.059h-.02v.02h.02v.079h-.02v.01h.01v.059h-.02v.01Zm-.345-.01h.128v-.01c-.01,0-.02.01-.02,0v-.237h-.109v.01h.03v.049h-.03v.01h.02v.079h-.029v.01h.02v.059h-.03v.01Zm-.118,0v-.01h0v-.316l-.069.02v.286h.01v.01h.059v-.01Zm0-.237v.01h.02v.049h-.02v.01h.01v.079h-.02v.01h.01v.059h-.02v.01h.079v-.237h-.079Zm0-.167v0Zm0,0h0v.02h0Zm-2.051.542h0a17.839,17.839,0,0,1,2.3,0h0A17.839,17.839,0,0,0,1639.22,755.7Zm-.01.02v-.01a22.753,22.753,0,0,1,2.318,0v.01A22.717,22.717,0,0,0,1639.21,755.716Zm-.02.02h0a18.888,18.888,0,0,1,2.357,0h0C1640.709,755.7,1640.018,755.7,1639.19,755.735Zm-.02.02h0c.848-.039,1.548-.039,2.4,0h0C1640.729,755.716,1640.009,755.716,1639.17,755.755Zm2.406.01v.01c-.828-.039-1.6-.039-2.426,0v-.01C1640.038,755.726,1640.679,755.726,1641.577,755.765Zm.02.02v.01a20.539,20.539,0,0,0-2.466,0v-.01C1640.009,755.745,1640.709,755.745,1641.6,755.785Zm.779-.365v-.059h.03v.069h-.01Zm.01.059v-.03h.01v-.01h0v.069l.01-.02Zm-1.371-.463h-.089v-.03h.089Zm-.207,0h-.108v-.03h.108Zm-.138,0h-.1v-.03h.1Zm-.168,0h-.118v-.03h.118Zm-.316.6v-.01h.375v.01Zm0,.02Zm.187-.049Zm.02-.522h.562v.128h-.552c-.01,0-.02.01-.03.01h0a.037.037,0,0,1-.03-.01h-.552v-.128h.612Zm-1.6.66h0a2.682,2.682,0,0,1-.276.01h-.059l.039.089.335-.01h0l.01.02a26.416,26.416,0,0,1,3.057,0v-.02h.01l.335.01.039-.089h-.049c-.089,0-.187-.01-.276-.01h-.118l-.04-.039a.305.305,0,0,1,.1.01h.069c.1,0,.187.01.276.01h.069c.01-.029.03-.069.04-.1h-.04v.069l-.069-.01V754.11h-.01c-.089,0-.178.01-.276.01v.089h0l.217-.01v.266h.01v.039h-.227v.059h.227v.059h-.118v1.025h-.02V755.6h0v-.68h0v-.325h-.1v.01h.089v.01h-.089v.029h.089v.01h-.03v.138h.03v.02h-.089v.138h.089v.01h-.079v.03h.079V755h-.03v.148h.03v.02h-.089v.138h.089v.01h-.02v.059h.02v.01h-.02v.089h.02v.01h-.02v.059h.02v.01a.271.271,0,0,1-.089-.01v.069h-.059V754.08h0c-.089,0-.177.01-.266.01v.089h.01a1.463,1.463,0,0,0,.207-.01v.256h.01v.039a1.8,1.8,0,0,0-.227.01v.059h.227v.059h-.227v.02h.217v.2h-.109v.128h.1v.2h.02v.02h-.118v.443h-.02v-.059h0v-.266h0v-.128h-.01v.01h-.089v.138h.079v.256h-.079v.049h-.01l-.049-.039V754.11h-.286v.089h.237v.256h.01v.039h-.247v.059h.247v.059h-.247v.019h.237v.2h-.118v.128h.118v.2h.01v.02h-.128v.374h-.02v-.374h-.089v-.02h.03v-.148h-.03V755h.089v-.03h-.089v-.01h.089v-.128h-.1v.207l-.069-.02h0v-.887h-.286v.089h.237v.256h.02v.029h-.256v.059h.256v.059h-.256v.02h.01v.039h.049v.138h.039v.01h-.1v.128h.1V755h-.168v-.867h-.286v.089h.247v.246h.02v.029h-.266v.059h.266v.059h-.266v.019h.247v.039h0v.148h-.118v.128h.118v.039h-.888v-.039h.118v-.128h-.118v-.148h0v-.039h.246v-.019h-.266v-.059h.266v-.059h-.266v-.029h.02v-.246h.246v-.089h-.286V755h-.158v-.039h.1v-.128h-.1v-.01h.039v-.138h.049v-.039h.01v-.02h-.256v-.059h.256V754.5h-.256v-.029h.02v-.256h.237v-.089h-.286v.887h0l-.069.02v-.207h-.1v.128h.089v.01h-.089V755h.089v.01h-.03v.148h.03v.02h-.089v.374h-.02v-.374h-.128v-.02h.01v-.2h.119v-.128h-.119v-.2h.237v-.019h-.246v-.059h.246v-.059h-.246v-.039h.01V754.2h.237v-.089h-.286v1.448l-.049.039h-.01v-.049h-.079v-.256h.079v-.138h-.089v-.01h-.01v.128h0v.266h0v.059H1639v-.443h-.118v-.02h.02v-.2h.1v-.128h-.109v-.2h.217v-.02h-.227v-.059h.227v-.059a1.656,1.656,0,0,1-.227-.01v-.039h.01v-.256a1.461,1.461,0,0,1,.207.01h.01v-.089a2.383,2.383,0,0,1-.266-.01h0v1.527h-.059v-.069a.27.27,0,0,0-.089.01v-.256h.089v-.138h-.079v-.02h.03v-.148h-.03v-.01h.069v-.029h-.069v-.01h.079V754.8h-.089v-.019h.029v-.138h-.029v-.01h.089v-.03h-.089v-.01h.089v-.01h-.1v.325h0v.68h0v.049h-.02v-1.025h-.119v-.059h.227v-.059h-.227v-.039h.01v-.266l.217.01h0v-.089a2.684,2.684,0,0,1-.276-.01h0v1.557l-.069.01V755.6h-.049a.308.308,0,0,0,.049.1h.069c.089,0,.177-.01.276-.01h.059a.336.336,0,0,0,.1-.01l-.03.039h-.119Zm.8-.7-.128.03v.01l.128-.029h1.558l.128.029v-.01l-.128-.03h-1.558Zm-.128.049.128-.03h1.558l.128.03h0l-.118-.03H1639.6l-.128.03h0Zm.375.02h.02l.01.01v.02h.01v.01h0v.01h-.039v-.059Zm.02.01v.02h0v-.01h0Zm0,.02v.02h0Zm.059-.03.01.059h-.02v-.01h-.01v.01h-.02l.01-.059h.02Zm-.01.039v0h.01Zm.059-.039-.01.03.01.03h-.02l-.01-.02v.02h-.01v-.059h.01v.02l.01-.02h.01Zm.02,0v.059h-.01v-.059Zm.02,0h.03v.049h-.03v-.059Zm.02.01v.04h0v-.04Zm.069.03v.02h-.03V755.1h.03v.03Zm-.02-.02v-.01h0v.04h0v-.04Zm0-.029v.01h-.01v-.01Zm.02,0v.01h-.01v-.01Zm.049.01-.01.059h-.02l-.01-.059h.02v0Zm.02,0v.049h.01v.01h-.02v-.059h.02Zm.03.039h0v-.02h0v.01Zm-.01-.03v-.019h.039v.049h-.039v-.03h.02v-.019h0v.01h-.01Zm.079-.019v.01h-.01v.049h-.01v-.049h-.01v-.01Zm.661,0v.059h-.02v-.059Zm-.02,0v.01h-.01v.049h-.02v-.049h-.01v-.01Zm-.069,0h.03v.01h-.01v.01h.01v.01h-.01v.01h.01v.01h-.03v-.059Zm-.01,0v.01h-.01v.049h-.02v-.049h-.01v-.01Zm-.04,0v.059h-.02v-.059Zm-.02.019h-.02v-.01h0v.01h0c.01,0,.01.01.02.01v.02h-.02a.01.01,0,0,1-.01-.01v-.01h.01a.01.01,0,0,1-.01-.01h0v-.019h.03v.019Zm-.069-.01v.02h0Zm-.02-.01h.03v.019h0v.02h-.02v-.02h0v.03h-.02v-.059Zm-.04,0h.03v.01h-.01v.01h.01v.01h-.01v.01h.01v.01h-.03v-.059Zm0,0-.01.059h-.02l-.01-.059h.02v0h.02Zm-.049-.01v.01h-.02v-.01Zm0,.01v.059h-.02v-.059Zm-.02,0v.059h-.02l-.01-.03v.03h-.01v-.059h.01l.01.029v-.029h.01Zm-.049,0v.059h-.03v-.049h.02v.039h0v-.039h.02Zm.266-.01v.01h-.02v-.01Zm.138,0v.01h-.02v-.01Zm-299.776,38.852c.187-1.143.375-2.306.552-3.508H1287.38c-.335,1.173-.671,2.345-1.016,3.508h54.776Zm.69-4.454c.168-1.153.325-2.315.473-3.518h-53.691l-.977,3.518Zm.592-4.454c.138-1.153.276-2.325.4-3.518h-53.01q-.459,1.759-.947,3.518h53.553Zm.513-4.454c.118-1.153.247-2.325.355-3.518h-52.33c-.3,1.182-.592,2.355-.9,3.518h52.872Zm.444-4.454c.109-1.163.207-2.335.306-3.518h-51.649c-.276,1.182-.552,2.355-.838,3.518h52.182Zm.385-4.454c.089-1.163.177-2.335.256-3.518h-50.988c-.256,1.183-.513,2.355-.779,3.518Zm.325-4.444c.079-1.163.148-2.335.217-3.518h-50.357c-.227,1.182-.473,2.355-.72,3.518h50.86Zm.276-4.454c.069-1.173.128-2.335.178-3.518H1294.8c-.207,1.182-.434,2.355-.651,3.518h50.229Zm.227-4.454c.05-1.173.1-2.335.138-3.518h-49.194q-.281,1.774-.592,3.518h49.637Zm.178-4.454c.039-1.172.079-2.345.108-3.518h-48.671c-.168,1.183-.345,2.355-.523,3.518h49.075Zm.138-4.454c.03-1.173.049-2.345.079-3.518h-48.178c-.148,1.192-.3,2.365-.464,3.518Zm.089-4.454c.02-1.172.03-2.345.039-3.518h-47.714c-.128,1.182-.256,2.365-.394,3.518h48.079Zm.039-4.454c0-1.173.01-2.345,0-3.518h-47.3c-.109,1.183-.217,2.355-.335,3.518h47.625Zm0-4.454c-.01-1.182-.02-2.355-.039-3.518H1298.1c-.089,1.182-.178,2.365-.276,3.518h47.211Zm-.049-4.454c-.02-1.182-.04-2.355-.069-3.518H1298.4c-.069,1.192-.138,2.355-.217,3.518Zm-.1-4.454q-.044-1.774-.118-3.518h-46.166c-.049,1.192-.1,2.355-.168,3.518H1344.9Zm-.158-4.454c-.049-1.182-.1-2.355-.158-3.518h-45.811q-.044,1.774-.118,3.518Zm-.207-4.454c-.069-1.192-.138-2.355-.207-3.518h-45.456c-.01.858-.03,1.724-.049,2.6,0,.306-.01.611-.02.916h45.742Zm-.276-4.454c-.089-1.192-.168-2.365-.266-3.518h-45.081q-.015,1.729-.03,3.518Zm-.345-4.454c-.108-1.193-.217-2.365-.335-3.518h-44.637c-.01,1.153-.01,2.325-.02,3.518Zm-.444-4.454c-.128-1.2-.276-2.375-.414-3.518h-44.075q-.03,1.744-.03,3.518h44.529Zm-.543-4.454c-.168-1.2-.335-2.384-.523-3.518h-43.345c-.039,1.163-.059,2.335-.079,3.518h43.937Zm-.68-4.454c-.207-1.222-.434-2.394-.661-3.518h-42.339c-.069,1.163-.119,2.335-.158,3.518h43.158Zm-.868-4.454c-.207-.975-.434-1.9-.671-2.779-.059-.246-.138-.493-.2-.739h-40.919c-.118,1.163-.217,2.335-.286,3.518Zm-1.124-4.454c-.325-1.183-.661-2.355-1-3.518h-39.1c-.177,1.163-.335,2.335-.463,3.518Zm-1.272-4.454c-.345-1.182-.7-2.355-1.055-3.518H1300.97q-.385,1.759-.68,3.518h38.68Zm-1.341-4.454c-.355-1.183-.72-2.355-1.065-3.518h-34.449c-.345,1.173-.661,2.345-.937,3.518Zm-1.351-4.454c-.355-1.183-.7-2.345-1.036-3.518h-31.609c-.454,1.172-.868,2.345-1.233,3.518h33.877Zm-1.3-4.454c-.335-1.172-.651-2.345-.966-3.518h-28.443c-.562,1.182-1.085,2.345-1.558,3.518h30.968Zm-1.2-4.454q-.444-1.759-.828-3.518h-25.011c-.68,1.183-1.322,2.355-1.9,3.518Zm-1.026-4.454c-.246-1.173-.464-2.345-.661-3.518h-21.352c-.809,1.182-1.548,2.355-2.249,3.518h24.261Zm-.809-4.454c-.168-1.163-.325-2.335-.444-3.508H1314q-1.39,1.773-2.6,3.508h20.543Zm-.523-4.444c-.1-1.163-.168-2.335-.2-3.518H1317.7c-1.036,1.182-2.032,2.355-2.949,3.518h16.677Zm-.207-4.454c-.01-1.163.01-2.325.069-3.518h-9.478c-1.154,1.192-2.239,2.365-3.274,3.518Zm.128-4.454a57,57,0,0,1,1.44-9.351c-3.758,3.242-7.091,6.346-10.05,9.351Zm-61.995,9.844c-.109,1.192-.2,2.365-.286,3.508h-1.884c.582-1.172,1.213-2.335,1.913-3.508h.256Zm-.345,4.444c-.079,1.2-.148,2.375-.2,3.518h-3.58c.454-1.173.947-2.345,1.5-3.518h2.278Zm-.247,4.454c-.049,1.2-.079,2.375-.109,3.518h-4.9c.335-1.173.7-2.345,1.124-3.518Zm-.118,4.454c-.02,1.2-.02,2.375-.01,3.518H1262.7c.227-1.172.483-2.345.789-3.518h5.138Zm0,4.454c.02,1.2.049,2.375.1,3.518h-6.706q.192-1.759.5-3.518h6.115Zm.138,4.454c.059,1.2.128,2.375.217,3.518h-7.318c.059-1.183.138-2.345.256-3.518h6.844Zm.286,4.454q.148,1.8.325,3.518h-7.821c0-1.182.02-2.355.069-3.518h7.426Zm.424,4.454c.138,1.2.286,2.375.434,3.518h-8.274c-.039-1.182-.069-2.355-.079-3.518Zm.562,4.454c.168,1.2.345,2.375.523,3.518h-8.718q-.1-1.774-.178-3.518h8.363Zm.68,4.454c.187,1.192.385,2.365.582,3.518h-9.152q-.118-1.774-.237-3.518Zm.74,4.454q.3,1.773.592,3.518h-9.6l-.118-1.744-.128-1.764h9.251Zm.75,4.454c.187,1.172.375,2.345.542,3.518h-10.01c-.069-1.173-.138-2.345-.217-3.518Zm.671,4.454c.158,1.163.306,2.325.434,3.518H1262.98c-.059-1.182-.118-2.345-.178-3.518h10.089Zm.532,4.454c.118,1.153.207,2.325.286,3.518h-10.533l-.148-3.518Zm.345,4.454c.069,1.183.138,2.355.2,3.518h-10.632q-.059-1.759-.118-3.518Zm.246,4.454c.059,1.183.128,2.355.178,3.518h-10.73c-.03-1.172-.059-2.345-.1-3.518h10.642Zm.227,4.454c.059,1.192.108,2.355.168,3.518h-10.849c-.02-1.173-.039-2.345-.069-3.518h10.76Zm.207,4.454c.049,1.192.1,2.355.138,3.518h-10.967c-.01-1.172-.03-2.345-.049-3.518Zm.177,4.454q.059,1.788.118,3.518h-11.085c0-1.172-.01-2.345-.02-3.518Zm.148,4.454c.345,11.588.316,21.579-.02,30.23h-11.45q.044-1.758.089-3.518h11.421v-.936h-11.4c.03-1.173.049-2.345.069-3.518h11.322V758.3h-11.3c.02-1.172.039-2.335.059-3.518h11.243v-.936h-11.233c.02-1.173.03-2.345.049-3.518h11.184v-.936h-11.184l.03-3.518h11.154v-.936h-11.145c.01-1.172.01-2.345.01-3.518h11.135v-.936h-11.135c0-1.173,0-2.345-.01-3.518h11.105Zm-.049,31.167c-.049,1.192-.108,2.375-.168,3.518h-11.371c.03-1.163.069-2.335.1-3.518Zm-.217,4.454c-.069,1.2-.148,2.375-.227,3.518H1263.06c.039-1.173.069-2.345.108-3.518ZM1135.253,620.506c1.016,2.67,1.085,7.262.552,13.125h10.987a67.225,67.225,0,0,0-11.539-13.125Zm.454,14.061c-.118,1.133-.247,2.3-.4,3.518h14.222c-.671-1.182-1.371-2.355-2.12-3.518Zm-.523,4.454q-.222,1.714-.5,3.518h17.131q-.843-1.773-1.775-3.518h-14.853Zm-.641,4.454q-.266,1.73-.562,3.518h19.764c-.464-1.183-.966-2.355-1.489-3.518Zm-.72,4.454c-.2,1.153-.395,2.325-.611,3.518h22.131q-.577-1.773-1.243-3.518h-20.287Zm-.779,4.454c-.207,1.153-.424,2.325-.651,3.508h24.281c-.325-1.182-.671-2.355-1.036-3.508h-22.6Zm-.828,4.444c-.217,1.163-.444,2.335-.671,3.518h26.234c-.266-1.183-.542-2.355-.848-3.518h-24.705Zm-.848,4.454c-.227,1.163-.454,2.335-.69,3.518h28c-.217-1.182-.444-2.345-.7-3.518h-26.619Zm-.868,4.454c-.227,1.162-.464,2.335-.7,3.518h29.607l-.03-.2c-.168-1.113-.345-2.217-.533-3.32H1130.49Zm-.888,4.454-.7,3.518h31.116c-.158-1.163-.316-2.335-.483-3.518h-29.932Zm-.888,4.454c-.237,1.173-.463,2.345-.7,3.518h32.546c-.138-1.153-.276-2.335-.424-3.518Zm-.888,4.454c-.227,1.172-.464,2.345-.69,3.518h33.907c-.118-1.163-.247-2.335-.375-3.518Zm-.878,4.454-.68,3.518h35.189q-.148-1.744-.325-3.518h-34.183ZM1126.1,688c-.227,1.183-.444,2.355-.661,3.518h36.392c-.089-1.163-.187-2.335-.286-3.518h-35.455Zm-.838,4.454c-.217,1.182-.424,2.355-.631,3.518h37.526c-.079-1.163-.168-2.335-.246-3.518Zm-.8,4.454c-.207,1.182-.4,2.355-.6,3.518h38.582c-.079-1.163-.148-2.335-.227-3.518Zm-.759,4.454c-.2,1.192-.375,2.365-.552,3.518h39.568c-.069-1.163-.148-2.335-.217-3.518Zm-.69,4.454q-.266,1.789-.5,3.518h40.475c-.069-1.173-.148-2.335-.207-3.518h-39.765Zm-.621,4.454c-.158,1.192-.3,2.375-.424,3.518h41.294c-.079-1.173-.148-2.345-.227-3.518h-40.653Zm-.523,4.454c-.118,1.2-.227,2.384-.316,3.518h42.024c-.089-1.172-.168-2.345-.256-3.518Zm-.375,4.454c-.069,1.133-.128,2.237-.158,3.281l-.01.236h42.6c-.1-1.173-.2-2.345-.286-3.518h-42.152Zm-.178,4.454q-.044,1.774-.059,3.518h43.108c-.118-1.172-.237-2.345-.335-3.518h-42.7Zm-.069,4.454c-.01,1.182-.02,2.355-.02,3.518h43.621c-.138-1.182-.276-2.355-.395-3.518h-43.217Zm-.01,4.454q0,1.774.029,3.518h44.174q-.252-1.774-.473-3.518h-43.74Zm.049,4.454c.02,1.183.049,2.355.079,3.518h44.755c-.2-1.182-.375-2.355-.542-3.518Zm.109,4.454c.039,1.182.079,2.355.128,3.518h45.367q-.34-1.774-.621-3.518Zm.178,4.454c.049,1.182.118,2.355.187,3.518h46.018c-.246-1.182-.483-2.355-.7-3.518Zm.247,4.454c.069,1.182.158,2.355.247,3.518h46.718c-.276-1.182-.542-2.355-.789-3.518H1121.83Zm.316,4.454c.1,1.182.2,2.355.306,3.518h47.448c-.306-1.182-.6-2.355-.878-3.518h-46.866Zm.395,4.454q.163,1.773.355,3.518h48.207c-.335-1.192-.661-2.355-.966-3.518h-47.606Zm.463,4.454c.138,1.183.276,2.355.424,3.518h49c-.365-1.192-.71-2.355-1.045-3.518H1123Zm.543,4.454c.158,1.182.325,2.355.493,3.518h49.8c-.138-.414-.276-.828-.4-1.242-.247-.759-.483-1.518-.72-2.266h-49.164Zm.631,4.454c.178,1.183.365,2.355.552,3.518h50.614c-.414-1.173-.809-2.345-1.193-3.518Zm.71,4.454c.2,1.182.414,2.355.631,3.518h51.412c-.424-1.172-.848-2.345-1.262-3.518Zm.8,4.454c.227,1.182.463,2.355.7,3.518h52.211c-.454-1.173-.888-2.345-1.331-3.518h-51.58Zm.9,4.454c.247,1.183.513,2.355.779,3.518h52.981q-.71-1.759-1.391-3.518Zm1,4.454c.276,1.182.562,2.355.858,3.508h53.75c-.493-1.172-.976-2.345-1.45-3.508H1127.58Zm503.947-149.547c1.223,0,3.057,1.153,3.057,2.483a2.415,2.415,0,0,1-2.258,2.483h-1.795v2.6h2.653a3.3,3.3,0,0,1,3.166,3.409,4.527,4.527,0,0,1-1.193,2.848h2.791a4.456,4.456,0,0,0,.779-2.848,6.193,6.193,0,0,0-2.791-5.272,5.177,5.177,0,0,0,1.065-3.232c0-2.808-2.919-5.065-5.454-5.065h-1v2.581h1Zm-1.489,4.966v-7.548h-1.2a1.262,1.262,0,0,0-1.193,1.3v9.361l-.04-.01v1.961a6.945,6.945,0,0,0,2.032,5.065,5.814,5.814,0,0,0,4.547,1.9h6.726a8.382,8.382,0,0,0,6.371-2.857,10.454,10.454,0,0,0,0-13.874,8.433,8.433,0,0,0-4.576-2.68,18.84,18.84,0,0,1,.059,2.69,6.461,6.461,0,0,1,2.811,1.852,7.58,7.58,0,0,1,0,10.179,6.184,6.184,0,0,1-4.665,2.148c-2.564,0-4.586.01-7.209.01l-.128-.01a4.284,4.284,0,0,1-3.531-3.853V645.85Zm12.269-6.247c0-.641-.01-1.222-.256-1.252-.079-.01-.868-.049-.947-.049a1.25,1.25,0,0,0-1.2,1.3v11.312a7.068,7.068,0,0,0,1.1,3.892,6.105,6.105,0,0,0,2.554-.709,4.552,4.552,0,0,1-1.243-3.173V639.622Zm2.268,18.042a5.256,5.256,0,0,0,1.726.246h1.894a6.772,6.772,0,0,0,6.154-6.966V639.622a1.193,1.193,0,1,0-2.377,0v11.312a4.225,4.225,0,0,1-3.748,4.345c-.03,0-.138.01-.4.01a7.024,7.024,0,0,1-3.245,2.375Z" transform="translate(-470.841 -101.82)" fill="#2c4b62" fill-rule="evenodd"/>
  </g>
</svg>
